<?xml version="1.0" standalone="no"?>
<!DOCTYPE svg PUBLIC "-//W3C//DTD SVG 1.1//EN" "http://www.w3.org/Graphics/SVG/1.1/DTD/svg11.dtd" >
<svg xmlns="http://www.w3.org/2000/svg">
<metadata>
Created by FontPrep 20130207 at Mon Sep 18 15:56:11 2017
 By Marko Boskovic
Copyright (c) 2016 by Alex Sheyn. All rights reserved.
</metadata>
<defs>
<font id="fecd271ce2544b60bf6b08531fd21e27" horiz-adv-x='1024' >
  <font-face 
    font-family="ATCArquette-Medium"
    font-weight="500"
    font-stretch="normal"
    units-per-em="2048"
    panose-1="0 0 6 0 0 0 0 0 0 0"
    ascent="1638"
    descent="-410"
    x-height="1024"
    cap-height="1393"
    bbox="-1341 -588 2648 1884"
    underline-thickness="102"
    underline-position="-102"
    unicode-range="U+0020-FB02"
  />
<missing-glyph horiz-adv-x="942" 
d="M627 -109h-312v-61h131l-131 -88v-64h312v64h-191l131 88h60v61zM565 86v-88h-188v88h188zM627 150h-312v-213h312v213zM627 475h-189v-106h66v43h61v-88h-188v151h-62v-213h312v213zM627 705h-62v-125h-250v-64h312v189zM627 817h-312v-61h123v-70h-123v-63h189v133h123
v61zM438 999v-67h-61v67h61zM504 1065h-189v-197h312v64h-123v133zM627 1307h-310v-62h121v-69h-123v-62h312v62h-123v69h123v62zM772 1434v-1885h-596v1885h596z" />
    <glyph glyph-name="fi" unicode="fi" horiz-adv-x="1302" 
d="M1112 1024v-1024h-205v840h-444v-840h-205v840h-184v184h184v102q0 150 79 229t228 79h185v-195h-175q-113 0 -112 -123v-92h649zM1009 1198q-54 0 -95 39q-40 39 -40 94t40 94t94 39t95 -39q40 -39 40 -94t-40 -94t-94 -39z" />
    <glyph glyph-name="fl" unicode="fl" horiz-adv-x="1277" 
d="M905 1434h205v-1434h-205v840h-442v-840h-205v840h-184v184h184v102q0 150 79 229t228 79h144v-195h-134q-113 0 -112 -123v-92h442v410z" />
    <glyph glyph-name="f_f" unicode="ff" horiz-adv-x="1368" 
d="M1208 1239q-113 0 -112 -123v-92h245v-184h-245v-840h-205v840h-428v-840h-205v840h-184v184h184v102q0 150 79 229t228 79h144v-195h-134q-113 0 -112 -123v-92h428v102q0 150 79 229t228 79h143v-195h-133z" />
    <glyph glyph-name="f_f_i" unicode="ffi" horiz-adv-x="1935" 
d="M1745 1024v-1024h-205v840h-436v-840h-205v840h-436v-840h-205v840h-184v184h184v102q0 150 79 229t228 79h144v-195h-134q-113 0 -112 -123v-92h436v102q0 150 79 229t228 79h185v-195h-174q-113 0 -113 -123v-92h641zM1776 1331q0 -55 -40 -94t-95 -39q-54 0 -94 39
t-40 94t40 94t94 39q55 0 95 -39t40 -94z" />
    <glyph glyph-name="f_f_l" unicode="ffl" horiz-adv-x="1921" 
d="M1548 1434h205v-1434h-205v840h-440v-840h-205v840h-440v-840h-205v840h-184v184h184v102q0 150 79 229t228 79h144v-195h-134q-113 0 -112 -123v-92h440v102q0 150 79 229t228 79h144v-195h-133q-113 0 -113 -123v-92h440v410z" />
    <glyph glyph-name=".notdef" horiz-adv-x="942" 
d="M627 -109h-312v-61h131l-131 -88v-64h312v64h-191l131 88h60v61zM565 86v-88h-188v88h188zM627 150h-312v-213h312v213zM627 475h-189v-106h66v43h61v-88h-188v151h-62v-213h312v213zM627 705h-62v-125h-250v-64h312v189zM627 817h-312v-61h123v-70h-123v-63h189v133h123
v61zM438 999v-67h-61v67h61zM504 1065h-189v-197h312v64h-123v133zM627 1307h-310v-62h121v-69h-123v-62h312v62h-123v69h123v62zM772 1434v-1885h-596v1885h596z" />
    <glyph glyph-name=".null" 
 />
    <glyph glyph-name="nonmarkingreturn" horiz-adv-x="681" 
 />
    <glyph glyph-name="space" unicode=" " horiz-adv-x="593" 
 />
    <glyph glyph-name="exclam" unicode="!" horiz-adv-x="555" 
d="M278 236q54 0 94 -39t40 -95t-40 -94q-40 -39 -94 -39t-95 39q-40 39 -40 94t40 95q41 39 95 39zM207 389l-51 1004h245l-51 -1004h-143z" />
    <glyph glyph-name="quotedbl" unicode="&#x22;" horiz-adv-x="735" 
d="M438 1434h215l-37 -547h-141zM82 1434h215l-37 -547h-141z" />
    <glyph glyph-name="numbersign" unicode="#" horiz-adv-x="1470" 
d="M854 526l64 340h-302l-65 -340h303zM1364 866h-238l-65 -340h203v-204h-242l-61 -322h-209l61 322h-301l-61 -322h-209l61 322h-197v204h238l64 340h-199v205h240l61 322h207l-62 -322h303l62 322h207l-62 -322h199v-205z" />
    <glyph glyph-name="dollar" unicode="$" horiz-adv-x="1296" 
d="M664 143q147 0 240 66t93 164t-69 143q-70 45 -215 78l-80 -451h31zM639 1247q-133 1 -218 -61t-85 -152t63 -139t185 -82l75 434h-20zM1184 395q0 -190 -148 -309t-389 -119q-31 0 -45 2l-37 -215l-162 29l37 211q-137 39 -230 123t-122 198l180 68q51 -145 205 -205
l78 449q-284 61 -368 226q-34 69 -33 159q0 186 137 300t360 113q31 0 45 -2l37 215l162 -28l-37 -215q121 -37 204 -120t109 -198l-178 -67q-41 139 -168 198l-78 -434q247 -53 349 -148q92 -90 92 -231z" />
    <glyph glyph-name="percent" unicode="%" horiz-adv-x="1898" 
d="M1645 336q-1 90 -65 154t-151 63q-87 1 -153 -63t-66 -153t66 -154t153 -65t151 64t65 154zM1430 705q150 0 258 -108q108 -107 108 -261t-108 -262t-258 -107q-150 0 -261 109q-111 110 -111 262t112 260q110 108 260 107zM473 1272q-89 0 -153 -62t-64 -152
q0 -88 65 -152t153 -64t150 62t62 152t-62 154q-62 62 -151 62zM473 1425q151 1 259 -107t108 -262t-109 -260q-109 -108 -259 -108t-260 109t-110 261t110 260q110 107 261 107zM1331 1434l142 -93l-906 -1382l-141 92z" />
    <glyph glyph-name="ampersand" unicode="&#x26;" horiz-adv-x="1476" 
d="M621 164q164 0 309 133l-340 340q-140 -68 -196 -119t-56 -140q0 -90 81 -152t202 -62zM685 1239q-83 0 -131 -43t-48 -116t139 -224q121 53 174 102t53 118t-52 116t-135 47zM602 -31q-197 0 -333 119t-136 293q0 139 87 229t239 164q-160 176 -160 316t112 238
q111 97 275 97t272 -92t109 -237q0 -217 -291 -373l281 -279q88 135 135 295l186 -49q-61 -217 -184 -383l213 -211l-143 -133l-199 199q-215 -193 -463 -193z" />
    <glyph glyph-name="quotesingle" unicode="'" horiz-adv-x="450" 
d="M186 1434h226l-224 -547h-149z" />
    <glyph glyph-name="parenleft" unicode="(" horiz-adv-x="800" 
d="M123 550q0 232 120 466t330 418l125 -125q-182 -158 -280 -358q-198 -404 -1 -805q97 -199 281 -359l-127 -125q-211 184 -329 420q-119 236 -119 468z" />
    <glyph glyph-name="parenright" unicode=")" horiz-adv-x="800" 
d="M481 549q0 203 -98 403t-281 357l125 125q211 -184 331 -418t120 -466t-119 -468t-330 -420l-127 125q184 159 282 359t97 403z" />
    <glyph glyph-name="asterisk" unicode="*" horiz-adv-x="876" 
d="M754 1176l-219 -111l219 -111l-62 -106l-205 133l13 -244h-123l12 244l-205 -133l-61 106l219 111l-219 111l61 106l205 -133l-12 244h123l-13 -244l205 133z" />
    <glyph glyph-name="plus" unicode="+" horiz-adv-x="1167" 
d="M1044 788v-184h-368v-368h-184v368h-369v184h369v369h184v-369h368z" />
    <glyph glyph-name="comma" unicode="," horiz-adv-x="450" 
d="M186 266h226l-224 -547h-149z" />
    <glyph glyph-name="hyphen" unicode="-" horiz-adv-x="880" 
d="M133 492v184h615v-184h-615z" />
    <glyph glyph-name="period" unicode="." horiz-adv-x="555" 
d="M278 295q66 0 114 -47t48 -115t-48 -116t-114 -48t-115 48q-48 48 -48 116t48 115t115 47z" />
    <glyph glyph-name="slash" unicode="/" horiz-adv-x="1132" 
d="M172 -307h-215l973 2007h215z" />
    <glyph glyph-name="zero" unicode="0" horiz-adv-x="1347" 
d="M674 182q154 0 242 137t90 377q0 240 -90 377t-242 137q-154 0 -243 -137t-89 -377t89 -377t243 -137zM674 -33q-250 0 -404 202q-154 201 -154 527t154 528t404 202t404 -202t153 -528q1 -326 -153 -528t-404 -201z" />
    <glyph glyph-name="one" unicode="1" horiz-adv-x="860" 
d="M438 1393h226v-1393h-226v1057q-113 -135 -385 -135v192q186 0 286 79q99 79 99 200z" />
    <glyph glyph-name="two" unicode="2" horiz-adv-x="1161" 
d="M1042 215v-215h-936v178l588 621q94 98 94 194t-65 157q-66 60 -161 60t-165 -63t-82 -158l-215 37q25 170 155 285t312 115t315 -120q132 -120 132 -304t-178 -367l-410 -420h616z" />
    <glyph glyph-name="three" unicode="3" horiz-adv-x="1210" 
d="M615 -33q-199 -1 -343 105t-192 288l211 64q23 -114 109 -178t202 -64q117 0 199 62t82 152q0 92 -83 154t-206 62h-182v193h182q110 0 184 60q74 61 74 147t-75 142t-182 56t-186 -63t-104 -178l-211 63q52 184 188 288t326 105t329 -117q138 -118 138 -288
q0 -211 -207 -307q113 -47 176 -131t64 -195q0 -176 -147 -298t-346 -122z" />
    <glyph glyph-name="four" unicode="4" horiz-adv-x="1273" 
d="M1167 522v-200h-215v-322h-213v322h-665v176l456 895h234l-449 -871h424v428h213v-428h215z" />
    <glyph glyph-name="five" unicode="5" horiz-adv-x="1232" 
d="M658 922q174 0 314 -130t140 -335t-154 -347t-346 -142t-329 104t-187 288l211 64q23 -115 104 -178q81 -64 193 -64t197 78q86 78 86 197t-78 189q-79 70 -217 71q-138 0 -254 -105l-193 97l113 684h776v-215h-604l-53 -332q108 76 281 76z" />
    <glyph glyph-name="six" unicode="6" horiz-adv-x="1269" 
d="M647 182q115 0 196 81t81 196t-81 195t-196 81q-115 0 -195 -81q-80 -82 -81 -196q1 -114 81 -195t195 -81zM678 934q199 0 335 -141t136 -342t-143 -342t-344 -142q-260 1 -402 189t-143 518q0 330 170 541q170 210 434 210q111 0 219 -48t172 -128l-162 -137
q-38 43 -102 71t-127 27q-156 0 -261 -123t-124 -319q52 74 146 120t196 46z" />
    <glyph glyph-name="seven" unicode="7" horiz-adv-x="1204" 
d="M139 1393h965v-189l-619 -1204h-254l611 1178h-703v215z" />
    <glyph glyph-name="eight" unicode="8" horiz-adv-x="1224" 
d="M612 182q125 0 207 62t82 154t-83 154t-206 62q-124 0 -206 -62t-82 -154t82 -154t206 -62zM612 1210q-108 0 -182 -57t-74 -144t74 -145t184 -57q110 0 183 57q73 56 73 144t-74 145q-75 57 -184 57zM1126 387q0 -176 -147 -298t-367 -122t-366 122q-147 122 -148 298
q0 105 60 193t164 141q-190 100 -191 299q0 170 138 288t343 118t343 -118t139 -288q-1 -199 -191 -299q103 -53 163 -140t60 -194z" />
    <glyph glyph-name="nine" unicode="9" horiz-adv-x="1269" 
d="M623 657q115 0 195 81t81 196q0 116 -81 196q-82 80 -196 80t-195 -81t-81 -195t81 -196q81 -81 196 -81zM608 1425q260 0 402 -188q142 -189 143 -519q0 -330 -170 -540t-434 -211q-111 0 -219 48t-172 128l161 138q37 -43 102 -71t128 -28q156 0 262 123t125 322
q-51 -74 -145 -121t-199 -47q-199 0 -335 140t-136 342t143 343t344 141z" />
    <glyph glyph-name="colon" unicode=":" horiz-adv-x="493" 
d="M247 295q67 0 115 -47t48 -115t-48 -116t-116 -48q-66 0 -114 48t-48 116t48 115t115 47zM84 883q0 69 48 115t115 46t115 -47t48 -115t-48 -115q-48 -48 -116 -48q-66 0 -114 48t-48 116z" />
    <glyph glyph-name="semicolon" unicode=";" horiz-adv-x="491" 
d="M186 266h226l-224 -547h-149zM247 1055q67 0 115 -47t48 -115t-48 -116t-116 -48q-66 0 -114 48t-48 116t48 115t115 47z" />
    <glyph glyph-name="less" unicode="&#x3c;" horiz-adv-x="1167" 
d="M1044 1208v-196l-655 -316l655 -315v-197l-921 451v123z" />
    <glyph glyph-name="equal" unicode="=" horiz-adv-x="1167" 
d="M123 584h921v-185h-921v185zM123 993h921v-184h-921v184z" />
    <glyph glyph-name="greater" unicode="&#x3e;" horiz-adv-x="1167" 
d="M123 1208l921 -450v-123l-921 -451v197l655 315l-655 316v196z" />
    <glyph glyph-name="question" unicode="?" horiz-adv-x="1140" 
d="M501 -31q-54 0 -94 39t-40 94q0 54 40 94t94 40t94 -39t40 -95t-40 -94q-40 -39 -94 -39zM608 389h-215v27q0 158 50 238t165 130q115 48 166 100t51 132t-70 137q-71 57 -183 57t-190 -63q-79 -63 -103 -178l-211 63q51 184 187 288q135 104 327 105t329 -117t138 -296
q0 -123 -70 -219q-69 -97 -181 -145t-151 -86t-39 -130v-43z" />
    <glyph glyph-name="at" unicode="@" horiz-adv-x="1875" 
d="M905 254q100 0 161 73q60 73 60 185t-60 184t-160 72t-160 -72t-60 -184t60 -186q60 -72 159 -72zM1126 897h156v-455q0 -104 45 -160t129 -56t136 77q52 78 53 217q0 289 -210 494t-500 205t-497 -208t-207 -500t208 -499q207 -207 489 -207t483 185l84 -90
q-239 -217 -569 -217q-330 -1 -574 243t-243 586q0 342 242 586q243 244 585 244t587 -244q245 -242 244 -572q0 -196 -92 -318t-239 -122q-100 0 -181 57q-80 57 -112 162q-20 -86 -90 -141t-174 -55q-150 -1 -251 111q-102 112 -100 290t102 292t261 114q160 0 235 -140
v121z" />
    <glyph glyph-name="A" unicode="A" horiz-adv-x="1536" 
d="M516 543h502l-252 614zM1241 0l-139 338h-670l-137 -338h-234l580 1393h248l586 -1393h-234z" />
    <glyph glyph-name="B" unicode="B" horiz-adv-x="1351" 
d="M807 205q104 0 166.5 55t62.5 141t-61.5 139.5t-167.5 53.5h-408v-389h408zM782 1188h-383v-389h383q104 0 168 55t64 140t-63 139.5t-169 54.5zM807 0h-623v1393h598q190 0 318.5 -114t128.5 -286q0 -199 -178 -291q201 -90 200 -301q0 -172 -127 -286.5t-317 -114.5z
" />
    <glyph glyph-name="C" unicode="C" horiz-adv-x="1542" 
d="M852 1219q-221 0 -368.5 -150.5t-147.5 -372t148.5 -373t367.5 -151.5q135 0 246.5 63.5t181.5 172.5l182 -109q-98 -152 -260 -242t-350 -90q-305 0 -518 212t-213 517t213 517t518 212q188 0 350 -90t260 -243l-182 -107q-68 109 -180.5 171.5t-247.5 62.5z" />
    <glyph glyph-name="D" unicode="D" horiz-adv-x="1544" 
d="M676 205q236 0 384 136t148 354t-149.5 355.5t-382.5 137.5h-277v-983h277zM676 1393q319 0 533 -197t214 -500t-214 -499.5t-533 -196.5h-492v1393h492z" />
    <glyph glyph-name="E" unicode="E" horiz-adv-x="1216" 
d="M1102 1188h-703v-389h492v-205h-492v-389h703v-205h-918v1393h918v-205z" />
    <glyph glyph-name="F" unicode="F" horiz-adv-x="1193" 
d="M1102 1188h-703v-389h492v-205h-492v-594h-215v1393h918v-205z" />
    <glyph glyph-name="G" unicode="G" horiz-adv-x="1665" 
d="M827 735h695v-94q0 -297 -191.5 -485.5t-490.5 -188.5t-509 212t-210 516t213 517t518 213q188 0 350 -90t260 -243l-182 -107q-68 109 -180.5 171.5t-249.5 62.5q-219 0 -366.5 -150.5t-147.5 -372.5t145.5 -372t372.5 -150q188 0 317 103.5t136 252.5h-480v205z" />
    <glyph glyph-name="H" unicode="H" horiz-adv-x="1546" 
d="M1145 1393h217v-1393h-217v594h-746v-594h-215v1393h215v-594h746v594z" />
    <glyph glyph-name="I" unicode="I" horiz-adv-x="612" 
d="M199 1393h215v-1393h-215v1393z" />
    <glyph glyph-name="J" unicode="J" horiz-adv-x="1189" 
d="M813 1393h215v-897q0 -236 -150.5 -382.5t-379.5 -146.5q-262 0 -455 197l154 145q139 -137 293 -137t238.5 87t84.5 241v893z" />
    <glyph glyph-name="K" unicode="K" horiz-adv-x="1363" 
d="M399 0h-215v1393h215v-676l648 676h282l-590 -605l594 -788h-256l-489 633l-189 -193v-440z" />
    <glyph glyph-name="L" unicode="L" horiz-adv-x="1179" 
d="M399 205h703v-205h-918v1393h215v-1188z" />
    <glyph glyph-name="M" unicode="M" horiz-adv-x="1863" 
d="M1679 1393v-1393h-215v1087l-424 -1087h-225l-416 1083v-1083h-215v1393h318l428 -1110l432 1110h317z" />
    <glyph glyph-name="N" unicode="N" horiz-adv-x="1546" 
d="M1147 1393h215v-1393h-174l-789 1004v-1004h-215v1393h172l791 -1006v1006z" />
    <glyph glyph-name="O" unicode="O" horiz-adv-x="1697" 
d="M850 172q217 0 364.5 151.5t147.5 371.5t-146.5 372t-365.5 152t-366.5 -150.5t-147.5 -372t148.5 -373t365.5 -151.5zM850 -33q-303 0 -516 212t-213 517t213 517t516 212t515 -213t212 -516t-212 -516t-515 -213z" />
    <glyph glyph-name="P" unicode="P" horiz-adv-x="1320" 
d="M786 768q113 0 179.5 59.5t66.5 150.5t-67.5 150.5t-178.5 59.5h-387v-420h387zM786 1393q197 0 329 -118t132 -295t-130 -298t-331 -121h-387v-561h-215v1393h602z" />
    <glyph glyph-name="Q" unicode="Q" horiz-adv-x="1710" 
d="M852 172q160 0 289 90l-250 250l143 145l248 -247q80 127 80 286q0 219 -146.5 371t-365.5 152t-366.5 -150.5t-147.5 -372t148.5 -373t367.5 -151.5zM121 696q0 305 213 517t516 212t515 -213t212 -516q0 -244 -143 -438l174 -174l-146 -145l-174 174
q-190 -145 -436 -146q-305 0 -518 212t-213 517z" />
    <glyph glyph-name="R" unicode="R" horiz-adv-x="1347" 
d="M399 1188v-420h387q113 0 179.5 59.5t66.5 150.5t-67.5 150.5t-178.5 59.5h-387zM399 561v-561h-215v1393h602q197 0 329 -118t132 -296q0 -139 -85 -248.5t-228 -148.5l336 -582h-250l-324 561h-297z" />
    <glyph glyph-name="S" unicode="S" horiz-adv-x="1306" 
d="M1194 401q0 -193 -149.5 -313.5t-381 -120.5t-386 102.5t-189.5 264.5l205 78q31 -109 131 -174.5t242.5 -65.5t227.5 60.5t85 154.5q1 111 -147 161q-69 23 -193.5 47.5t-195 49.5t-142.5 70q-151 94 -151 286.5t140 308t356 115.5t357.5 -99t176.5 -267l-203 -78
q-25 106 -112 172t-214 66t-206.5 -54.5t-79.5 -144.5t80.5 -136t199.5 -71.5t163 -37t112.5 -34t108.5 -50t83 -67.5q82 -76 82 -223z" />
    <glyph glyph-name="T" unicode="T" horiz-adv-x="1214" 
d="M1133 1393v-205h-418v-1188h-215v1188h-418v205h1051z" />
    <glyph glyph-name="U" unicode="U" horiz-adv-x="1501" 
d="M1124 1393h215v-783q0 -291 -160.5 -467t-427 -176t-428 176t-161.5 467v783h215v-783q0 -199 102.5 -318.5t271.5 -119.5t271 120t102 318v783z" />
    <glyph glyph-name="V" unicode="V" horiz-adv-x="1476" 
d="M1184 1393h231l-547 -1393h-266l-541 1393h232l442 -1164z" />
    <glyph glyph-name="W" unicode="W" horiz-adv-x="2226" 
d="M1923 1393h229l-413 -1393h-277l-348 1153l-348 -1153h-277l-415 1393h229l324 -1149l350 1149h272l350 -1149z" />
    <glyph glyph-name="X" unicode="X" horiz-adv-x="1413" 
d="M1337 1393l-471 -697l471 -696h-262l-368 557l-369 -557h-262l471 696l-465 697h262l363 -557l368 557h262z" />
    <glyph glyph-name="Y" unicode="Y" horiz-adv-x="1386" 
d="M801 0h-215v569l-549 824h262l395 -609l393 609h263l-549 -824v-569z" />
    <glyph glyph-name="Z" unicode="Z" horiz-adv-x="1372" 
d="M1243 205v-205h-1110v170l772 1018h-772v205h1067v-170l-768 -1018h811z" />
    <glyph glyph-name="bracketleft" unicode="[" horiz-adv-x="913" 
d="M397 1231v-1391h363v-205h-588v1799h588v-203h-363z" />
    <glyph glyph-name="backslash" unicode="\" horiz-adv-x="1132" 
d="M961 -307l-973 2007h215l973 -2007h-215z" />
    <glyph glyph-name="bracketright" unicode="]" horiz-adv-x="874" 
d="M485 1231h-362v203h588v-1799h-588v205h362v1391z" />
    <glyph glyph-name="asciicircum" unicode="^" horiz-adv-x="1228" 
d="M1159 721h-196l-316 477l-315 -477h-197l451 672h123z" />
    <glyph glyph-name="underscore" unicode="_" horiz-adv-x="1384" 
d="M-4 -410v164h1393v-164h-1393z" />
    <glyph glyph-name="a" unicode="a" horiz-adv-x="1091" 
d="M486.5 168q95.5 0 177 70.5t81.5 185.5v74l-284 -58q-172 -41 -172 -143q0 -57 51 -93t146.5 -36zM522 1047q193 0 310.5 -116t117.5 -306v-625h-205v141q-49 -72 -135 -116.5t-208.5 -44.5t-220 83.5t-97.5 223t94 219.5t244 108l319 62q-14 80 -64 132t-132 52
t-151.5 -41t-106.5 -104l-166 116q66 96 176 156t225 60z" />
    <glyph glyph-name="b" unicode="b" horiz-adv-x="1243" 
d="M647 174q131 0 211 95.5t80 242.5t-80 242.5t-211 95.5t-211 -95.5t-80 -242.5t80 -242.5t211 -95.5zM671 -20q-210 0 -304 180v-160h-205v1434h205v-557q100 168 306 167.5t337 -151t133 -384t-130 -381.5t-342 -148z" />
    <glyph glyph-name="c" unicode="c" horiz-adv-x="1112" 
d="M590 -20q-221 0 -367.5 154.5t-146.5 379.5t146.5 380t367.5 155q137 0 256 -65.5t194 -178.5l-172 -100q-47 70 -120.5 109.5t-155.5 39.5q-135 0 -223 -98.5t-88 -241.5t88 -241.5t223 -98.5q82 0 155.5 40t120.5 110l172 -101q-76 -113 -194.5 -178t-255.5 -65z" />
    <glyph glyph-name="d" unicode="d" horiz-adv-x="1216" 
d="M575.5 174q131.5 0 211 95.5t79.5 242.5t-79.5 242.5t-211 95.5t-211 -95.5t-79.5 -242.5t79.5 -242.5t211 -95.5zM856 1434h205v-1434h-205v160q-94 -180 -304 -180t-342 148t-130 382t133 384t337 150t306 -167v557z" />
    <glyph glyph-name="e" unicode="e" horiz-adv-x="1157" 
d="M579.5 850q-110.5 0 -180 -65.5t-90.5 -182.5h545q-4 123 -84 185.5t-190.5 62.5zM576.5 174q101.5 0 178 41t113.5 109l172 -101q-66 -111 -188.5 -177t-261.5 -66q-219 0 -356.5 153.5t-137.5 378.5t137.5 378.5t356.5 153.5q178 0 311 -111.5t158 -332.5
q10 -84 0 -182h-748q20 -117 92 -180.5t173.5 -63.5z" />
    <glyph glyph-name="f" unicode="f" horiz-adv-x="735" 
d="M575 1239q-113 0 -112 -123v-92h246v-184h-246v-840h-205v840h-184v184h184v102q0 150 79 229t228 79h144v-195h-134z" />
    <glyph glyph-name="g" unicode="g" horiz-adv-x="1236" 
d="M596 174q131 0 211 95.5t80 242.5t-80 242.5t-211 95.5t-211 -95.5t-80 -242.5t80 -242.5t211 -95.5zM877 1024h204v-958q-2 -227 -144 -366.5t-374 -139.5q-115 0 -228.5 51t-197.5 137l152 135q125 -129 273 -129t231.5 85t83.5 231v90q-95 -180 -305 -180t-342 148
t-130 382t134 384q130 150 336 150t307 -167v147z" />
    <glyph glyph-name="h" unicode="h" horiz-adv-x="1220" 
d="M688 1047q170 0 279.5 -126t109.5 -329v-592h-205v549q0 145 -68 226q-66 81 -180 81t-189 -95t-75 -222v-539h-204v1434h204v-566q49 80 136.5 129.5t191.5 49.5z" />
    <glyph glyph-name="i" unicode="i" horiz-adv-x="587" 
d="M193 1024h204v-1024h-204v1024zM294 1198q-54 0 -94 39t-40 94t40 94t94 39t94 -39t40 -94t-40 -94t-94 -39z" />
    <glyph glyph-name="j" unicode="j" horiz-adv-x="626" 
d="M229 -92v1116h205v-1126q0 -150 -79 -229t-228 -79h-143v195h133q112 0 112 123zM333 1198q-54 0 -93 39t-39 94t39 94t93 39t94 -39t40 -94t-40 -94t-94 -39z" />
    <glyph glyph-name="k" unicode="k" horiz-adv-x="1101" 
d="M360 0h-204v1434h204v-875l447 465h270l-403 -406l403 -618h-239l-314 469l-164 -166v-303z" />
    <glyph glyph-name="l" unicode="l" horiz-adv-x="542" 
d="M170 1434h205v-1434h-205v1434z" />
    <glyph glyph-name="m" unicode="m" horiz-adv-x="1816" 
d="M1296 1047q162 0 268.5 -127t106.5 -318v-602h-205v553q0 137 -61.5 220t-163.5 83t-163.5 -83t-61.5 -220v-553h-205v553q0 137 -61.5 220t-164 83t-164 -83t-61.5 -220v-553h-204v1024h204v-137q92 160 281 160q100 0 183 -52.5t132 -144.5q55 84 143 140.5t197 56.5z
" />
    <glyph glyph-name="n" unicode="n" horiz-adv-x="1220" 
d="M688 1047q170 0 279.5 -126t109.5 -329v-592h-205v549q0 145 -68 226q-66 81 -180 81t-189 -95t-75 -222v-539h-204v1024h204v-156q49 80 136.5 129.5t191.5 49.5z" />
    <glyph glyph-name="o" unicode="o" horiz-adv-x="1257" 
d="M629 174q137 0 232 97.5t95 240.5t-95 240.5t-232 97.5t-232.5 -97.5t-95.5 -240.5t95.5 -240.5t232.5 -97.5zM629 -20q-221 0 -377 155.5t-156 376.5t156 376.5t377 155.5t376.5 -155.5t155.5 -376.5t-155.5 -376.5t-376.5 -155.5z" />
    <glyph glyph-name="p" unicode="p" horiz-adv-x="1236" 
d="M641 174q131 0 211 95.5t80 242.5t-80 242.5t-211 95.5t-211 -95.5t-80 -242.5t80 -242.5t211 -95.5zM664.5 -20q-209.5 0 -304.5 180v-570h-204v1434h204v-147q100 168 306.5 167.5t337.5 -151t133 -384t-130.5 -381.5t-342 -148z" />
    <glyph glyph-name="q" unicode="q" horiz-adv-x="1236" 
d="M596 174q131 0 211 95.5t80 242.5t-80 242.5t-211 95.5t-211 -95.5t-80 -242.5t80 -242.5t211 -95.5zM877 1024h204v-1434h-204v570q-95 -180 -305 -180t-342 148t-130 382t134 384q130 150 336 150t307 -167v147z" />
    <glyph glyph-name="r" unicode="r" horiz-adv-x="778" 
d="M719 1047v-205q-186 0 -272.5 -85t-86.5 -218v-539h-204v1024h204v-147q106 170 359 170z" />
    <glyph glyph-name="s" unicode="s" horiz-adv-x="958" 
d="M860 286q0 -138 -111.5 -225.5t-277.5 -87.5t-272.5 76t-130.5 201l182 55q18 -68 73.5 -107.5t136.5 -39.5t138 32.5t57 77.5t-32.5 73t-69.5 41q-37 12 -110 34q-129 38 -229.5 103.5t-100.5 209t104.5 231t257.5 87.5t252.5 -76t122.5 -201l-176 -55
q-14 70 -66.5 108.5t-124 38.5t-119 -33.5t-47.5 -84t47.5 -79t182.5 -69.5t203 -90q110 -82 110 -220z" />
    <glyph glyph-name="t" unicode="t" horiz-adv-x="800" 
d="M705 840h-246v-523q0 -123 112 -122h134v-195h-144q-150 0 -228.5 79t-78.5 228v533h-184v184h184v266l205 62v-328h246v-184z" />
    <glyph glyph-name="u" unicode="u" horiz-adv-x="1218" 
d="M860 1024h205v-1024h-205v156q-49 -80 -136 -129.5t-192 -49.5q-170 0 -279.5 126t-109.5 329v592h205v-549q0 -145 67.5 -226t181.5 -81t188.5 95t74.5 222v539z" />
    <glyph glyph-name="v" unicode="v" horiz-adv-x="1112" 
d="M836 1024h221l-369 -1024h-266l-369 1024h221l281 -819z" />
    <glyph glyph-name="w" unicode="w" horiz-adv-x="1751" 
d="M1473 1024h215l-308 -1024h-262l-241 805l-242 -805h-262l-307 1024h215l223 -805l244 805h258l243 -805z" />
    <glyph glyph-name="x" unicode="x" horiz-adv-x="1085" 
d="M1024 1024l-348 -512l348 -512h-238l-243 377l-244 -377h-238l349 512l-349 512h238l244 -377l243 377h238z" />
    <glyph glyph-name="y" unicode="y" horiz-adv-x="1165" 
d="M897 1024h211l-592 -1434h-217l190 457l-436 977h226l319 -719z" />
    <glyph glyph-name="z" unicode="z" horiz-adv-x="995" 
d="M895 195v-195h-789v170l519 659h-519v195h779v-170l-518 -659h528z" />
    <glyph glyph-name="braceleft" unicode="{" horiz-adv-x="972" 
d="M588 862q0 -268 -226 -327q225 -55 226 -328v-203q0 -164 149 -164h129v-205h-112q-190 1 -290 101t-102 291v194q0 95 -46 149t-123 54h-87v223h87q77 0 123 52t46 151v194q0 188 100 288t292 102h112v-203h-129q-150 0 -149 -166v-203z" />
    <glyph glyph-name="bar" unicode="|" horiz-adv-x="430" 
d="M307 -268h-184v1702h184v-1702z" />
    <glyph glyph-name="braceright" unicode="}" horiz-adv-x="964" 
d="M776 647h86v-223h-86q-78 0 -124 -53t-46 -150v-194q0 -191 -100 -291t-291 -101h-113v205h129q150 0 150 164v203q0 272 225 328q-225 59 -225 327v203q0 166 -150 166h-129v203h113q191 0 291 -100t100 -290v-194q0 -98 46 -150t124 -53z" />
    <glyph glyph-name="asciitilde" unicode="~" horiz-adv-x="1312" 
d="M924 524q112 0 209 160l73 -72q-121 -205 -301 -204q-87 0 -171 42q-24 11 -105 52q-135 72 -211 72t-129 -43q-53 -42 -111 -119l-76 71q56 95 142 151t174 56t152 -30q22 -10 65 -32t66 -34q23 -11 33 -18t26 -14t24 -11t22 -9t24 -7q9 -3 26 -7t68 -4z" />
    <glyph glyph-name="exclamdown" unicode="&#xa1;" horiz-adv-x="555" 
d="M207 635h143l51 -1004h-245zM412 922q0 -54 -40 -94t-94 -40t-95 39q-40 39 -40 95t40 94q41 39 95 39t94 -39t40 -94z" />
    <glyph glyph-name="cent" unicode="&#xa2;" horiz-adv-x="1112" 
d="M281 706q0 -219 151 -313l115 631q-117 -14 -191 -110t-75 -208zM76 688q0 223 145 378t363 157l45 247l162 -28l-46 -242q188 -61 295 -221l-172 -100q-57 88 -157 127l-119 -658q82 0 156 40t120 110l172 -101q-76 -113 -194 -179t-256 -64q-23 0 -35 2l-47 -265
l-162 29l49 270q-145 60 -232 194t-87 304z" />
    <glyph glyph-name="sterling" unicode="&#xa3;" horiz-adv-x="1251" 
d="M823 195q121 0 181 122l186 -86q-48 -103 -146 -167t-221 -64h-721v195h21q205 0 205 221v184h-226v193h226v188q0 199 119 322q120 123 294 122q123 0 221 -63t146 -168l-182 -82q-25 53 -75 86t-110 33q-90 0 -149 -70t-60 -180v-188h451v-193h-451v-184
q0 -139 -69 -221h360z" />
    <glyph glyph-name="currency" unicode="&#xa4;" horiz-adv-x="1159" 
d="M581 924q-103 0 -181 -76t-78 -182t76 -182q76 -74 182 -74t181 74t75 182t-76 183t-179 75zM958 667q0 -122 -71 -223l149 -147l-88 -88l-147 149q-98 -72 -219 -72t-222 72l-149 -149l-88 88l149 149q-72 98 -72 220t72 221l-149 147l88 88l149 -149q100 71 222 71
t219 -71l147 149l88 -88l-149 -147q71 -98 71 -220z" />
    <glyph glyph-name="yen" unicode="&#xa5;" horiz-adv-x="1439" 
d="M1128 774v-184h-301v-144h301v-184h-301v-262h-215v262h-303v184h303v144h-303v184h248l-414 619h263l313 -486l313 486h262l-411 -619h245z" />
    <glyph glyph-name="brokenbar" unicode="&#xa6;" horiz-adv-x="622" 
d="M236 387h149v-772h-149v772zM236 1495h149v-774h-149v774z" />
    <glyph glyph-name="section" unicode="&#xa7;" horiz-adv-x="1038" 
d="M506 504q98 0 163 38t64 91q0 53 -66 91q-67 38 -165 38t-163 -38t-65 -91t67 -91t165 -38zM864 160q0 -144 -102 -232t-256 -88t-254 76t-127 201l176 55q17 -70 69 -109t123 -39t119 34t47 83q0 49 -48 79t-185 70t-211 85q-147 88 -147 233q0 104 66 172q67 68 155 90
q-145 90 -145 236t100 232q102 87 256 87t254 -75q100 -76 127 -201l-176 -55q-17 70 -69 108t-123 39q-71 0 -118 -34t-47 -83q0 -48 47 -78t185 -70t211 -83q147 -93 149 -236q0 -104 -68 -172t-155 -90q147 -90 147 -235z" />
    <glyph glyph-name="copyright" unicode="&#xa9;" horiz-adv-x="1771" 
d="M668 696q0 -102 63 -172t158 -69q124 0 196 106l123 -72q-53 -79 -138 -125t-181 -47q-158 0 -262 110q-105 109 -105 269t104 270t263 109q96 0 181 -46t138 -126l-123 -72q-72 106 -196 107q-93 0 -157 -70t-64 -172zM887 1343q-271 0 -457 -186q-186 -187 -186 -459
t186 -460t457 -187q270 1 455 189t186 458q0 270 -186 458t-455 187zM886 -70q-320 0 -542 224q-223 224 -223 542t223 542q222 224 542 224t542 -223t222 -543t-222 -542q-222 -224 -542 -224z" />
    <glyph glyph-name="guillemotleft" unicode="&#xab;" horiz-adv-x="1357" 
d="M1204 952l-340 -379l340 -378h-248l-340 378l340 379h248zM711 952l-340 -379l340 -378h-248l-340 378l340 379h248z" />
    <glyph glyph-name="logicalnot" unicode="&#xac;" horiz-adv-x="1312" 
d="M1196 209h-125v516h-954v119h1079v-635z" />
    <glyph glyph-name="registered" unicode="&#xae;" horiz-adv-x="1105" 
d="M487 1151v-88h107q23 0 37 12q14 11 14 31t-14 32t-37 13h-107zM729 1110q0 -80 -74 -113l90 -157h-96l-84 145h-78v-145h-84v393h191q57 0 96 -35t39 -88zM554 696q140 0 240 100t99 240q0 140 -100 240q-99 100 -239 100t-240 -99t-101 -239q1 -140 101 -242
q100 -100 240 -100zM553 1466q176 0 303 -127t127 -303t-126 -303t-303 -127t-304 127t-127 304t127 303t303 126z" />
    <glyph glyph-name="degree" unicode="&#xb0;" horiz-adv-x="813" 
d="M391 1348h-2q-84 0 -138 -62t-54 -162t56 -165t144 -65t142 62q53 60 53 160t-52 166q-53 66 -149 66zM393 1434h2q133 0 220 -89t87 -229t-89 -222q-89 -83 -219 -83t-219 83t-89 223q0 141 90 229t217 88z" />
    <glyph glyph-name="plusminus" unicode="&#xb1;" horiz-adv-x="1167" 
d="M164 236v184h840v-184h-840zM676 891h328v-184h-328v-205h-184v205h-328v184h328v266h184v-266z" />
    <glyph glyph-name="paragraph" unicode="&#xb6;" horiz-adv-x="1224" 
d="M733 -106h-139v667h-29q-193 0 -329 108t-138 310q0 479 666 479q195 0 280 -18v-1546h-139v1439h-172v-1439z" />
    <glyph glyph-name="periodcentered" unicode="&#xb7;" horiz-adv-x="555" 
d="M278 737q66 0 114 -47t48 -115q0 -67 -48 -115t-114 -48t-115 48q-48 48 -48 116t48 114q48 47 115 47z" />
    <glyph glyph-name="guillemotright" unicode="&#xbb;" horiz-adv-x="1357" 
d="M895 952l340 -379l-340 -378h-248l340 378l-340 379h248zM401 952l340 -379l-340 -378h-247l340 378l-340 379h247z" />
    <glyph glyph-name="onequarter" unicode="&#xbc;" horiz-adv-x="1949" 
d="M1858 365v-162h-140v-203h-182v203h-436v139l305 578h201l-297 -555h227v251h182v-251h140zM537 492h-193v657q-84 -84 -252 -84v176q141 8 197 46q55 38 55 124h193v-919zM1335 1436l99 -64l-928 -1415l-98 63z" />
    <glyph glyph-name="onehalf" unicode="&#xbd;" horiz-adv-x="1927" 
d="M1835 178v-178h-643v137l381 398q55 59 55 110t-37 84t-93 33t-97 -46t-41 -114l-178 33q4 129 97 217t222 88t222 -83t93 -206t-120 -250l-219 -223h358zM537 492h-193v657q-84 -84 -252 -84v176q141 8 197 46q55 38 55 124h193v-919zM1335 1436l99 -64l-928 -1415
l-98 63z" />
    <glyph glyph-name="threequarters" unicode="&#xbe;" horiz-adv-x="2052" 
d="M1960 365v-162h-139v-203h-183v203h-436v139l305 578h201l-297 -555h227v251h183v-251h139zM782 748q0 -121 -98 -199t-236 -78t-234 74q-95 74 -122 190l180 53q8 -61 54 -100t114 -39t112 34t44 85t-49 84t-133 33h-105v153h105q76 0 118 30t43 78q0 48 -39 79
q-40 31 -102 31t-102 -38q-40 -36 -49 -96l-181 47q27 121 119 193t223 72q132 0 226 -75t94 -202t-131 -194q149 -72 149 -215zM1438 1436l98 -64l-928 -1415l-98 63z" />
    <glyph glyph-name="questiondown" unicode="&#xbf;" horiz-adv-x="1140" 
d="M532 625h216v-27q0 -158 -50 -239t-166 -130t-166 -100t-50 -131t70 -137q71 -57 182 -57q110 0 190 62q80 64 104 179l211 -63q-51 -184 -187 -288t-328 -106q-192 0 -329 118t-137 296q0 123 70 219q70 97 181 145t151 86q39 38 38 130v43zM506 911q0 55 40 94t94 39
t94 -38t40 -94t-40 -95t-94 -39t-94 39t-40 94z" />
    <glyph glyph-name="Agrave" unicode="&#xc0;" horiz-adv-x="1536" 
d="M516 543h502l-252 614zM1241 0l-139 338h-670l-137 -338h-234l580 1393h248l586 -1393h-234zM877 1516h-177l-184 229l205 98z" />
    <glyph glyph-name="Aacute" unicode="&#xc1;" horiz-adv-x="1536" 
d="M516 543h502l-252 614zM1241 0l-139 338h-670l-137 -338h-234l580 1393h248l586 -1393h-234zM1034 1745l-184 -229h-176l155 327z" />
    <glyph glyph-name="Acircumflex" unicode="&#xc2;" horiz-adv-x="1536" 
d="M516 543h502l-252 614zM1241 0l-139 338h-670l-137 -338h-234l580 1393h248l586 -1393h-234zM770 1645l-225 -177l-86 86l231 248h158l231 -248l-86 -86z" />
    <glyph glyph-name="Atilde" unicode="&#xc3;" horiz-adv-x="1536" 
d="M516 543h502l-252 614zM1241 0l-139 338h-670l-137 -338h-234l580 1393h248l586 -1393h-234zM915 1501q-82 0 -162.5 59.5t-116.5 59.5t-50.5 -21.5t-14.5 -72.5h-137q0 117 53.5 187.5t139.5 70.5t184 -76q57 -43 96 -43q61 0 62 94h137q0 -117 -54.5 -187.5
t-136.5 -70.5z" />
    <glyph glyph-name="Adieresis" unicode="&#xc4;" horiz-adv-x="1536" 
d="M516 543h502l-252 614zM1241 0l-139 338h-670l-137 -338h-234l580 1393h248l586 -1393h-234zM955 1495q-54 0 -94 39t-40 94t40 94t94 39t94.5 -39t40.5 -94t-40.5 -94t-94.5 -39zM585 1495q-54 0 -94 39t-40 94t39.5 94t94 39t94.5 -39t40 -94t-40 -94t-94 -39z" />
    <glyph glyph-name="Aring" unicode="&#xc5;" horiz-adv-x="1536" 
d="M516 543h502l-252 614zM768 1636q-45 0 -78 -31.5t-33 -76.5t33 -77t78 -32t77 32t32 77t-32 76.5t-77 31.5zM767 1718q79 0 135 -56t56 -137t-65 -141l582 -1384h-234l-139 338h-670l-137 -338h-234l578 1386q-63 57 -63.5 138.5t56 137.5t135.5 56z" />
    <glyph glyph-name="AE" unicode="&#xc6;" horiz-adv-x="1984" 
d="M969 555v633h-191l-258 -633h449zM1870 1188h-690v-391h432v-201h-432v-391h690v-205h-901v350h-533l-141 -350h-234l580 1393h1229v-205z" />
    <glyph glyph-name="Ccedilla" unicode="&#xc7;" horiz-adv-x="1542" 
d="M852 172q135 0 246.5 63.5t181.5 172.5l182 -109q-96 -145 -248.5 -234.5t-330.5 -97.5l-111 -284l-180 94l129 203q-260 45 -430 246.5t-170 469.5q0 305 213 517t518 212q188 0 350 -90t260 -243l-182 -107q-68 109 -180.5 171.5t-247.5 62.5q-221 0 -368.5 -150.5
t-147.5 -372t148.5 -373t367.5 -151.5z" />
    <glyph glyph-name="Egrave" unicode="&#xc8;" horiz-adv-x="1216" 
d="M1102 1188h-703v-389h492v-205h-492v-389h703v-205h-918v1393h918v-205zM733 1516h-176l-184 229l205 98z" />
    <glyph glyph-name="Eacute" unicode="&#xc9;" horiz-adv-x="1216" 
d="M1102 1188h-703v-389h492v-205h-492v-389h703v-205h-918v1393h918v-205zM891 1745l-184 -229h-177l156 327z" />
    <glyph glyph-name="Ecircumflex" unicode="&#xca;" horiz-adv-x="1216" 
d="M1102 1188h-703v-389h492v-205h-492v-389h703v-205h-918v1393h918v-205zM627 1645l-226 -177l-86 86l232 248h158l231 -248l-86 -86z" />
    <glyph glyph-name="Edieresis" unicode="&#xcb;" horiz-adv-x="1216" 
d="M1102 1188h-703v-389h492v-205h-492v-389h703v-205h-918v1393h918v-205zM812 1495q-54 0 -94 39t-40 94t40 94t94 39t94 -39t40 -94t-40 -94t-94 -39zM441 1495q-54 0 -94 39t-40 94t40 94t94 39t94 -39t40 -94t-40 -94t-94 -39z" />
    <glyph glyph-name="Igrave" unicode="&#xcc;" horiz-adv-x="612" 
d="M199 1393h215v-1393h-215v1393zM258 1843l156 -327h-176l-185 229z" />
    <glyph glyph-name="Iacute" unicode="&#xcd;" horiz-adv-x="612" 
d="M199 1393h215v-1393h-215v1393zM367 1843l204 -98l-184 -229h-176z" />
    <glyph glyph-name="Icircumflex" unicode="&#xce;" horiz-adv-x="612" 
d="M199 0v1393h215v-1393h-215zM385 1802l231 -248l-86 -86l-223 177l-225 -177l-86 86l231 248h158z" />
    <glyph glyph-name="Idieresis" unicode="&#xcf;" horiz-adv-x="612" 
d="M199 1393h215v-1393h-215v1393zM493 1495q-54 0 -94.5 39t-40.5 94t40 94t94.5 39t94.5 -39t40 -94t-40 -94t-94 -39zM122 1495q-54 0 -94 39t-40 94t40 94t94 39t94 -39t40 -94t-40 -94t-94 -39z" />
    <glyph glyph-name="Eth" unicode="&#xd0;" horiz-adv-x="1544" 
d="M676 205q236 0 384 136t148 354t-149.5 355.5t-382.5 137.5h-277v-410h441v-164h-441v-409h277zM676 1393q319 0 533 -197t214 -500t-214 -499.5t-533 -196.5h-492v614h-164v164h164v615h492z" />
    <glyph glyph-name="Ntilde" unicode="&#xd1;" horiz-adv-x="1546" 
d="M1147 1393h215v-1393h-174l-789 1004v-1004h-215v1393h172l791 -1006v1006zM917 1501q-82 0 -162.5 59.5t-116.5 59.5t-50.5 -21.5t-14.5 -72.5h-137q0 117 53.5 187.5t139.5 70.5t184 -76q57 -43 96 -43q61 0 62 94h137q0 -117 -54.5 -187.5t-136.5 -70.5z" />
    <glyph glyph-name="Ograve" unicode="&#xd2;" horiz-adv-x="1697" 
d="M850 172q217 0 364.5 151.5t147.5 371.5t-146.5 372t-365.5 152t-366.5 -150.5t-147.5 -372t148.5 -373t365.5 -151.5zM850 -33q-303 0 -516 212t-213 517t213 517t516 212t515 -213t212 -516t-212 -516t-515 -213zM801 1864l155 -328h-176l-184 229z" />
    <glyph glyph-name="Oacute" unicode="&#xd3;" horiz-adv-x="1697" 
d="M850 172q217 0 364.5 151.5t147.5 371.5t-146.5 372t-365.5 152t-366.5 -150.5t-147.5 -372t148.5 -373t365.5 -151.5zM850 -33q-303 0 -516 212t-213 517t213 517t516 212t515 -213t212 -516t-212 -516t-515 -213zM909 1864l205 -99l-184 -229h-176z" />
    <glyph glyph-name="Ocircumflex" unicode="&#xd4;" horiz-adv-x="1697" 
d="M850 172q217 0 364.5 151.5t147.5 371.5t-146.5 372t-365.5 152t-366.5 -150.5t-147.5 -372t148.5 -373t365.5 -151.5zM850 1425q303 0 515 -213t212 -516t-212 -516t-515 -213t-516 212t-213 517t213 517t516 212zM850 1665l-225 -176l-86 86l231 248h158l231 -248
l-86 -86z" />
    <glyph glyph-name="Otilde" unicode="&#xd5;" horiz-adv-x="1697" 
d="M850 172q217 0 364.5 151.5t147.5 371.5t-146.5 372t-365.5 152t-366.5 -150.5t-147.5 -372t148.5 -373t365.5 -151.5zM850 -33q-303 0 -516 212t-213 517t213 517t516 212t515 -213t212 -516t-212 -516t-515 -213zM1049 1780h137q0 -117 -54.5 -187.5t-136.5 -70.5
t-162.5 59t-116.5 59t-50.5 -21.5t-14.5 -72.5h-137q0 117 53.5 187.5t139.5 70.5t184 -75q57 -43 96 -43q62 0 62 94z" />
    <glyph glyph-name="Odieresis" unicode="&#xd6;" horiz-adv-x="1697" 
d="M850 172q217 0 364.5 151.5t147.5 371.5t-146.5 372t-365.5 152t-366.5 -150.5t-147.5 -372t148.5 -373t365.5 -151.5zM850 -33q-303 0 -516 212t-213 517t213 517t516 212t515 -213t212 -516t-212 -516t-515 -213zM1035 1516q-54 0 -94 38.5t-40 94t40 94.5t94 39
t94 -39t40 -94.5t-40 -94t-94 -38.5zM665 1516q-54 0 -94.5 38.5t-40.5 94t40 94.5t94.5 39t94.5 -39t40 -94.5t-40 -94t-94 -38.5z" />
    <glyph glyph-name="multiply" unicode="&#xd7;" horiz-adv-x="1028" 
d="M905 956l-260 -260l260 -260l-131 -131l-260 260l-260 -260l-131 131l260 260l-260 260l131 131l260 -260l260 260z" />
    <glyph glyph-name="Oslash" unicode="&#xd8;" horiz-adv-x="1697" 
d="M852 172q215 0 362.5 151.5t147.5 372.5q0 172 -92 303l-727 -727q133 -100 309 -100zM336 696q0 -172 92 -305l727 727q-133 100 -303 101q-221 0 -368.5 -151t-147.5 -372zM1577 696q0 -303 -212 -516t-513 -213q-256 0 -457 158l-135 -135l-117 116l136 136
q-158 201 -158 454q0 305 213 517t518 212q252 0 453 -157l133 133l116 -117l-133 -133q156 -203 156 -455z" />
    <glyph glyph-name="Ugrave" unicode="&#xd9;" horiz-adv-x="1501" 
d="M1124 1393h215v-783q0 -291 -160.5 -467t-427 -176t-428 176t-161.5 467v783h215v-783q0 -199 102.5 -318.5t271.5 -119.5t271 120t102 318v783zM702 1843l156 -327h-176l-184 229z" />
    <glyph glyph-name="Uacute" unicode="&#xda;" horiz-adv-x="1501" 
d="M1124 1393h215v-783q0 -291 -160.5 -467t-427 -176t-428 176t-161.5 467v783h215v-783q0 -199 102.5 -318.5t271.5 -119.5t271 120t102 318v783zM811 1843l205 -98l-185 -229h-176z" />
    <glyph glyph-name="Ucircumflex" unicode="&#xdb;" horiz-adv-x="1501" 
d="M1124 1393h215v-783q0 -291 -160.5 -467t-427 -176t-428 176t-161.5 467v783h215v-783q0 -199 102.5 -318.5t271.5 -119.5t271 120t102 318v783zM752 1645l-226 -177l-86 86l232 248h157l232 -248l-86 -86z" />
    <glyph glyph-name="Udieresis" unicode="&#xdc;" horiz-adv-x="1501" 
d="M1124 1393h215v-783q0 -291 -160.5 -467t-427 -176t-428 176t-161.5 467v783h215v-783q0 -199 102.5 -318.5t271.5 -119.5t271 120t102 318v783zM937 1495q-54 0 -94 39t-40 94t40 94t94 39t94 -39t40 -94t-40 -94t-94 -39zM566 1495q-54 0 -94 39t-40 94t40 94t94 39
t94 -39t40 -94t-40 -94t-94 -39z" />
    <glyph glyph-name="Yacute" unicode="&#xdd;" horiz-adv-x="1386" 
d="M801 0h-215v569l-549 824h262l395 -609l393 609h263l-549 -824v-569zM969 1745l-185 -229h-176l156 327z" />
    <glyph glyph-name="Thorn" unicode="&#xde;" horiz-adv-x="1368" 
d="M786 487q113 -1 180 59q66 60 66 151t-67 151q-68 59 -179 59h-387v-420h387zM786 1112q197 0 329 -118t132 -295t-130 -298t-331 -120h-387v-281h-215v1393h215v-281h387z" />
    <glyph glyph-name="germandbls" unicode="&#xdf;" horiz-adv-x="1187" 
d="M621 -31q-63 0 -140 21v219q63 -35 161 -35t176 65t79 161q0 96 -79 161q-79 66 -197 66h-140v184h140q104 0 175 62q70 61 70 153t-70 153q-71 60 -176 60q-106 0 -184 -75t-78 -218v-946h-204v946q0 125 43 224q76 174 262 244q80 30 162 30q195 0 327 -117t133 -285
q-1 -106 -57 -189t-156 -132q115 -49 180 -137t64 -201q0 -172 -141 -293t-350 -121z" />
    <glyph glyph-name="agrave" unicode="&#xe0;" horiz-adv-x="1091" 
d="M486.5 168q95.5 0 177 70.5t81.5 185.5v74l-284 -58q-172 -41 -172 -143q0 -57 51 -93t146.5 -36zM522 1047q193 0 310.5 -116t117.5 -306v-625h-205v141q-49 -72 -135 -116.5t-208.5 -44.5t-220 83.5t-97.5 223t94 219.5t244 108l319 62q-14 80 -64 132t-132 52
t-151.5 -41t-106.5 -104l-166 116q66 96 176 156t225 60zM643 1147h-176l-184 229l204 99z" />
    <glyph glyph-name="aacute" unicode="&#xe1;" horiz-adv-x="1091" 
d="M486.5 168q95.5 0 177 70.5t81.5 185.5v74l-284 -58q-172 -41 -172 -143q0 -57 51 -93t146.5 -36zM522 1047q193 0 310.5 -116t117.5 -306v-625h-205v141q-49 -72 -135 -116.5t-208.5 -44.5t-220 83.5t-97.5 223t94 219.5t244 108l319 62q-14 80 -64 132t-132 52
t-151.5 -41t-106.5 -104l-166 116q66 96 176 156t225 60zM801 1376l-185 -229h-176l156 328z" />
    <glyph glyph-name="acircumflex" unicode="&#xe2;" horiz-adv-x="1091" 
d="M486.5 168q95.5 0 177 70.5t81.5 185.5v74l-284 -58q-172 -41 -172 -143q0 -57 51 -93t146.5 -36zM522 1047q193 0 310.5 -116t117.5 -306v-625h-205v141q-49 -72 -135 -116.5t-208.5 -44.5t-220 83.5t-97.5 223t94 219.5t244 108l319 62q-14 80 -64 132t-132 52
t-151.5 -41t-106.5 -104l-166 116q66 96 176 156t225 60zM537 1276l-226 -176l-86 86l232 248h157l232 -248l-86 -86z" />
    <glyph glyph-name="atilde" unicode="&#xe3;" horiz-adv-x="1091" 
d="M486.5 168q95.5 0 177 70.5t81.5 185.5v74l-284 -58q-172 -41 -172 -143q0 -57 51 -93t146.5 -36zM522 1047q193 0 310.5 -116t117.5 -306v-625h-205v141q-49 -72 -135 -116.5t-208.5 -44.5t-220 83.5t-97.5 223t94 219.5t244 108l319 62q-14 80 -64 132t-132 52
t-151.5 -41t-106.5 -104l-166 116q66 96 176 156t225 60zM682 1133q-82 0 -163 59t-117 59t-50 -21.5t-14 -72.5h-137q0 117 53 187.5t139 70.5t185 -76q57 -43 96 -43q61 0 61 95h137q0 -117 -54 -187.5t-136 -70.5z" />
    <glyph glyph-name="adieresis" unicode="&#xe4;" horiz-adv-x="1091" 
d="M486.5 168q95.5 0 177 70.5t81.5 185.5v74l-284 -58q-172 -41 -172 -143q0 -57 51 -93t146.5 -36zM522 1047q193 0 310.5 -116t117.5 -306v-625h-205v141q-49 -72 -135 -116.5t-208.5 -44.5t-220 83.5t-97.5 223t94 219.5t244 108l319 62q-14 80 -64 132t-132 52
t-151.5 -41t-106.5 -104l-166 116q66 96 176 156t225 60zM722 1126q-54 0 -94 39t-40 94.5t40 94.5t94 39t94 -39t40 -94.5t-40 -94.5t-94 -39zM351 1126q-54 0 -94 39t-40 94.5t40 94.5t94 39t94 -39t40 -94.5t-40 -94.5t-94 -39z" />
    <glyph glyph-name="aring" unicode="&#xe5;" horiz-adv-x="1091" 
d="M486.5 168q95.5 0 177 70.5t81.5 185.5v74l-284 -58q-172 -41 -172 -143q0 -57 51 -93t146.5 -36zM522 1047q193 0 310.5 -116t117.5 -306v-625h-205v141q-49 -72 -135 -116.5t-208.5 -44.5t-220 83.5t-97.5 223t94 219.5t244 108l319 62q-14 80 -64 132t-132 52
t-151.5 -41t-106.5 -104l-166 116q66 96 176 156t225 60zM541 1409q-45 0 -78 -31.5t-33 -77t33 -77t78 -31.5t76.5 31.5t31.5 77t-31.5 77t-76.5 31.5zM540 1110q-79 0 -135.5 56.5t-56.5 134t56.5 134t135.5 56.5t135 -56.5t56 -134t-56 -134t-135 -56.5z" />
    <glyph glyph-name="ae" unicode="&#xe6;" horiz-adv-x="1810" 
d="M465 168q111 0 198 85t87 247l-289 -60q-172 -37 -172 -143q0 -57 52 -93t124 -36zM1232 850q-110 0 -180 -66t-89 -182h544q-4 124 -84 186q-81 62 -191 62zM84 284q0 140 94 221t244 109l319 62q-14 80 -64 132t-132 52t-152 -41t-106 -104l-166 116q69 99 177 157
t234 59q225 0 345 -168q139 166 366 165q178 0 311 -112t158 -332q10 -84 0 -182h-747q20 -117 92 -180q72 -64 173 -64t178 41t114 109l172 -101q-66 -111 -189 -177t-259 -66t-241 59t-171 166q-56 -94 -162 -160q-106 -65 -249 -65t-241 82t-98 222z" />
    <glyph glyph-name="ccedilla" unicode="&#xe7;" horiz-adv-x="1112" 
d="M592 174q82 0 155.5 40t120.5 110l172 -101q-68 -100 -172 -164.5t-225 -76.5l-115 -299l-180 94l135 213q-180 37 -293.5 183t-113.5 356t146.5 365t367.5 155q137 0 256 -65.5t194 -178.5l-172 -100q-47 70 -120.5 109.5t-155.5 39.5q-135 0 -223 -98.5t-88 -241.5
t88 -241.5t223 -98.5z" />
    <glyph glyph-name="egrave" unicode="&#xe8;" horiz-adv-x="1157" 
d="M579.5 850q-110.5 0 -180 -65.5t-90.5 -182.5h545q-4 123 -84 185.5t-190.5 62.5zM576.5 174q101.5 0 178 41t113.5 109l172 -101q-66 -111 -188.5 -177t-261.5 -66q-219 0 -356.5 153.5t-137.5 378.5t137.5 378.5t356.5 153.5q178 0 311 -111.5t158 -332.5
q10 -84 0 -182h-748q20 -117 92 -180.5t173.5 -63.5zM686 1147h-176l-184 229l204 99z" />
    <glyph glyph-name="eacute" unicode="&#xe9;" horiz-adv-x="1157" 
d="M579.5 850q-110.5 0 -180 -65.5t-90.5 -182.5h545q-4 123 -84 185.5t-190.5 62.5zM576.5 174q101.5 0 178 41t113.5 109l172 -101q-66 -111 -188.5 -177t-261.5 -66q-219 0 -356.5 153.5t-137.5 378.5t137.5 378.5t356.5 153.5q178 0 311 -111.5t158 -332.5
q10 -84 0 -182h-748q20 -117 92 -180.5t173.5 -63.5zM844 1376l-185 -229h-176l156 328z" />
    <glyph glyph-name="ecircumflex" unicode="&#xea;" horiz-adv-x="1157" 
d="M579.5 850q-110.5 0 -180 -65.5t-90.5 -182.5h545q-4 123 -84 185.5t-190.5 62.5zM576.5 174q101.5 0 178 41t113.5 109l172 -101q-66 -111 -188.5 -177t-261.5 -66q-219 0 -356.5 153.5t-137.5 378.5t137.5 378.5t356.5 153.5q178 0 311 -111.5t158 -332.5
q10 -84 0 -182h-748q20 -117 92 -180.5t173.5 -63.5zM580 1276l-226 -176l-86 86l232 248h157l232 -248l-86 -86z" />
    <glyph glyph-name="edieresis" unicode="&#xeb;" horiz-adv-x="1157" 
d="M579.5 850q-110.5 0 -180 -65.5t-90.5 -182.5h545q-4 123 -84 185.5t-190.5 62.5zM576.5 174q101.5 0 178 41t113.5 109l172 -101q-66 -111 -188.5 -177t-261.5 -66q-219 0 -356.5 153.5t-137.5 378.5t137.5 378.5t356.5 153.5q178 0 311 -111.5t158 -332.5
q10 -84 0 -182h-748q20 -117 92 -180.5t173.5 -63.5zM765 1126q-54 0 -94 39t-40 94.5t40 94.5t94 39t94 -39t40 -94.5t-40 -94.5t-94 -39zM394 1126q-54 0 -94 39t-40 94.5t40 94.5t94 39t94 -39t40 -94.5t-40 -94.5t-94 -39z" />
    <glyph glyph-name="igrave" unicode="&#xec;" horiz-adv-x="524" 
d="M160 1024h205v-1024h-205v1024zM213 1475l156 -328h-176l-185 229z" />
    <glyph glyph-name="iacute" unicode="&#xed;" horiz-adv-x="524" 
d="M160 1024h205v-1024h-205v1024zM322 1475l204 -99l-184 -229h-176z" />
    <glyph glyph-name="icircumflex" unicode="&#xee;" horiz-adv-x="524" 
d="M160 0v1024h205v-1024h-205zM340 1434l231 -248l-86 -86l-223 176l-225 -176l-86 86l231 248h158z" />
    <glyph glyph-name="idieresis" unicode="&#xef;" horiz-adv-x="524" 
d="M160 1024h205v-1024h-205v1024zM448 1126q-54 0 -94.5 39t-40.5 94.5t40 94.5t94.5 39t94.5 -39t40 -94.5t-40 -94.5t-94 -39zM77 1126q-54 0 -94 39t-40 94.5t40 94.5t94 39t94 -39t40 -94.5t-40 -94.5t-94 -39z" />
    <glyph glyph-name="eth" unicode="&#xf0;" horiz-adv-x="1105" 
d="M359 638q-79 -81 -79 -198q0 -116 78 -194t195 -81t197 77t78 198t-80 196q-78 79 -194 81t-195 -79zM76 430q0 192 129 318t311 126q137 0 229 -73q-57 127 -145 256l-285 -103l-57 154l242 88q-66 82 -156 176l154 123q106 -113 196 -229l211 77l58 -153l-170 -62
q239 -362 239 -621t-143 -398t-342 -139t-335 134t-136 326z" />
    <glyph glyph-name="ntilde" unicode="&#xf1;" horiz-adv-x="1220" 
d="M688 1047q170 0 279.5 -126t109.5 -329v-592h-205v549q0 145 -67.5 226t-181 81t-188.5 -95t-75 -222v-539h-204v1024h204v-156q49 80 136.5 129.5t191.5 49.5zM753.5 1133q-82.5 0 -163 59t-116.5 59t-50 -21.5t-14 -72.5h-138q0 117 53.5 187.5t139.5 70.5t184 -76
q57 -43 96 -43q61 0 62 95h137q0 -117 -54 -187.5t-136.5 -70.5z" />
    <glyph glyph-name="ograve" unicode="&#xf2;" horiz-adv-x="1257" 
d="M629 174q137 0 232 97.5t95 240.5t-95 240.5t-232 97.5t-232.5 -97.5t-95.5 -240.5t95.5 -240.5t232.5 -97.5zM629 -20q-221 0 -377 155.5t-156 376.5t156 376.5t377 155.5t376.5 -155.5t155.5 -376.5t-155.5 -376.5t-376.5 -155.5zM580 1475l155 -328h-176l-184 229z
" />
    <glyph glyph-name="oacute" unicode="&#xf3;" horiz-adv-x="1257" 
d="M629 174q137 0 232 97.5t95 240.5t-95 240.5t-232 97.5t-232.5 -97.5t-95.5 -240.5t95.5 -240.5t232.5 -97.5zM629 -20q-221 0 -377 155.5t-156 376.5t156 376.5t377 155.5t376.5 -155.5t155.5 -376.5t-155.5 -376.5t-376.5 -155.5zM688 1475l205 -99l-184 -229h-177z
" />
    <glyph glyph-name="ocircumflex" unicode="&#xf4;" horiz-adv-x="1257" 
d="M629 174q137 0 232 97.5t95 240.5t-95 240.5t-232 97.5t-232.5 -97.5t-95.5 -240.5t95.5 -240.5t232.5 -97.5zM629 1044q221 0 376.5 -155.5t155.5 -376.5t-155.5 -376.5t-376.5 -155.5t-377 155.5t-156 376.5t156 376.5t377 155.5zM629 1276l-226 -176l-86 86l232 248
h158l231 -248l-86 -86z" />
    <glyph glyph-name="otilde" unicode="&#xf5;" horiz-adv-x="1257" 
d="M629 174q137 0 232 97.5t95 240.5t-95 240.5t-232 97.5t-232.5 -97.5t-95.5 -240.5t95.5 -240.5t232.5 -97.5zM629 -20q-221 0 -377 155.5t-156 376.5t156 376.5t377 155.5t376.5 -155.5t155.5 -376.5t-155.5 -376.5t-376.5 -155.5zM827 1391h138q0 -117 -54.5 -187.5
t-136.5 -70.5t-162.5 59t-116.5 59t-50.5 -21.5t-14.5 -72.5h-137q0 117 53 187.5t139.5 70.5t184.5 -76q57 -43 96 -43q61 1 61 95z" />
    <glyph glyph-name="odieresis" unicode="&#xf6;" horiz-adv-x="1257" 
d="M629 174q137 0 232 97.5t95 240.5t-95 240.5t-232 97.5t-232.5 -97.5t-95.5 -240.5t95.5 -240.5t232.5 -97.5zM629 -20q-221 0 -377 155.5t-156 376.5t156 376.5t377 155.5t376.5 -155.5t155.5 -376.5t-155.5 -376.5t-376.5 -155.5zM814 1126q-54 0 -94 39t-40 94.5
t40 94.5t94 39t94 -39t40 -94.5t-40 -94.5t-94 -39zM443 1126q-54 0 -94 39t-40 94.5t40 94.5t94 39t94.5 -39t40.5 -94.5t-40.5 -94.5t-94.5 -39z" />
    <glyph glyph-name="divide" unicode="&#xf7;" horiz-adv-x="1167" 
d="M585 479q54 0 94 -39t40 -94t-40 -94t-94 -39t-95 39q-40 39 -39 94q0 55 39 94q41 39 95 39zM123 604v184h921v-184h-921zM585 1180q54 0 94 -39t40 -94t-40 -95t-94 -39q-54 0 -95 39q-40 38 -40 94t40 95q41 39 95 39z" />
    <glyph glyph-name="oslash" unicode="&#xf8;" horiz-adv-x="1257" 
d="M956 512q0 106 -57 197l-469 -469q88 -66 212 -66t219 97.5t95 240.5zM301 512q0 -92 41 -168l459 459q-76 47 -170 47q-139 0 -234.5 -97.5t-95.5 -240.5zM1161 497q0 -206 -155.5 -361.5t-361.5 -155.5t-353 120l-168 -168l-96 97l170 170q-100 139 -101 313
q0 221 156 376.5t379 155.5q172 0 311 -100l150 150l96 -97l-148 -147q121 -147 121 -353z" />
    <glyph glyph-name="ugrave" unicode="&#xf9;" horiz-adv-x="1218" 
d="M860 1024h205v-1024h-205v156q-49 -80 -136 -129.5t-192 -49.5q-170 0 -279.5 126t-109.5 329v592h205v-549q0 -145 67.5 -226t181.5 -81t188.5 95t74.5 222v539zM711 1147h-176l-185 229l205 99z" />
    <glyph glyph-name="uacute" unicode="&#xfa;" horiz-adv-x="1218" 
d="M860 1024h205v-1024h-205v156q-49 -80 -136 -129.5t-192 -49.5q-170 0 -279.5 126t-109.5 329v592h205v-549q0 -145 67.5 -226t181.5 -81t188.5 95t74.5 222v539zM868 1376l-184 -229h-176l156 328z" />
    <glyph glyph-name="ucircumflex" unicode="&#xfb;" horiz-adv-x="1218" 
d="M860 1024h205v-1024h-205v156q-49 -80 -136 -129.5t-192 -49.5q-170 0 -279.5 126t-109.5 329v592h205v-549q0 -145 67.5 -226t181.5 -81t188.5 95t74.5 222v539zM604 1276l-225 -176l-86 86l231 248h158l231 -248l-86 -86z" />
    <glyph glyph-name="udieresis" unicode="&#xfc;" horiz-adv-x="1218" 
d="M860 1024h205v-1024h-205v156q-49 -80 -136 -129.5t-192 -49.5q-170 0 -279.5 126t-109.5 329v592h205v-549q0 -145 67.5 -226t181.5 -81t188.5 95t74.5 222v539zM790 1126q-54 0 -94.5 39t-40.5 94.5t40 94.5t94.5 39t94.5 -39t40 -94.5t-40 -94.5t-94 -39zM419 1126
q-54 0 -94 39t-40 94.5t40 94.5t94 39t94 -39t40 -94.5t-40 -94.5t-94 -39z" />
    <glyph glyph-name="yacute" unicode="&#xfd;" horiz-adv-x="1165" 
d="M897 1024h211l-592 -1434h-217l190 457l-436 977h226l319 -719zM848 1376l-184 -229h-177l156 328z" />
    <glyph glyph-name="thorn" unicode="&#xfe;" horiz-adv-x="1236" 
d="M934 514q0 150 -73 245t-203 97t-220 -97q-88 -99 -88 -245t88 -245q89 -99 220 -97q132 2 204 97t72 245zM669 1049q210 0 340 -150q130 -149 130 -385t-130 -386t-337 -148q-207 0 -312 157v-547h-204v1844h204v-555q99 170 309 170z" />
    <glyph glyph-name="ydieresis" unicode="&#xff;" horiz-adv-x="1165" 
d="M897 1024h211l-592 -1434h-217l190 457l-436 977h226l319 -719zM769 1126q-54 0 -94 39t-40 94.5t40 94.5t94 39t94 -39t40 -94.5t-40 -94.5t-94 -39zM398 1126q-54 0 -94 39t-40 94.5t40 94.5t94 39t94 -39t40 -94.5t-40 -94.5t-94 -39z" />
    <glyph glyph-name="Amacron" unicode="&#x100;" horiz-adv-x="1536" 
d="M516 543h502l-252 614zM1241 0l-139 338h-670l-137 -338h-234l580 1393h248l586 -1393h-234zM1128 1700v-164h-716v164h716z" />
    <glyph glyph-name="amacron" unicode="&#x101;" horiz-adv-x="1091" 
d="M486.5 168q95.5 0 177 70.5t81.5 185.5v74l-284 -58q-172 -41 -172 -143q0 -57 51 -93t146.5 -36zM522 1047q193 0 310.5 -116t117.5 -306v-625h-205v141q-49 -72 -135 -116.5t-208.5 -44.5t-220 83.5t-97.5 223t94 219.5t244 108l319 62q-14 80 -64 132t-132 52
t-151.5 -41t-106.5 -104l-166 116q66 96 176 156t225 60zM895 1331v-164h-717v164h717z" />
    <glyph glyph-name="Abreve" unicode="&#x102;" horiz-adv-x="1536" 
d="M516 543h502l-252 614zM1241 0l-139 338h-670l-137 -338h-234l580 1393h248l586 -1393h-234zM774 1507q-141 0 -233 83t-92 212h143q0 -66 48 -103.5t134 -37.5t134 38t48 103h144q0 -129 -92.5 -212t-233.5 -83z" />
    <glyph glyph-name="abreve" unicode="&#x103;" horiz-adv-x="1091" 
d="M486.5 168q95.5 0 177 70.5t81.5 185.5v74l-284 -58q-172 -41 -172 -143q0 -57 51 -93t146.5 -36zM522 1047q193 0 310.5 -116t117.5 -306v-625h-205v141q-49 -72 -135 -116.5t-208.5 -44.5t-220 83.5t-97.5 223t94 219.5t244 108l319 62q-14 80 -64 132t-132 52
t-151.5 -41t-106.5 -104l-166 116q66 96 176 156t225 60zM540.5 1139q-141.5 0 -233.5 83t-92 212h143q0 -66 48.5 -104t134.5 -38t134 38t48 104h143q0 -129 -92 -212t-233.5 -83z" />
    <glyph glyph-name="Aogonek" unicode="&#x104;" horiz-adv-x="1536" 
d="M516 543h502l-252 614zM1382 -145.5q0 -65.5 50.5 -81t119.5 21.5v-147q-152 -53 -240.5 -2t-88.5 157.5t75 196.5h-57l-139 338h-670l-137 -338h-234l580 1393h248l586 -1393q-93 -80 -93 -145.5z" />
    <glyph glyph-name="aogonek" unicode="&#x105;" horiz-adv-x="1091" 
d="M486.5 168q95.5 0 177 70.5t81.5 185.5v74l-284 -58q-172 -41 -172 -143q0 -57 51 -93t146.5 -36zM858 -145.5q0 -65.5 50 -81t120 21.5v-147q-152 -53 -241 -2t-89 157.5t76 196.5h-29v141q-49 -72 -135 -116.5t-208.5 -44.5t-220 83.5t-97.5 223t94 219.5t244 108
l319 62q-14 80 -64 132t-132 52t-151.5 -41t-106.5 -104l-166 116q66 96 176.5 156t224.5 60q193 0 310.5 -116t117.5 -306v-625q-92 -80 -92 -145.5z" />
    <glyph glyph-name="Cacute" unicode="&#x106;" horiz-adv-x="1542" 
d="M852 1219q-221 0 -368.5 -150.5t-147.5 -372t148.5 -373t367.5 -151.5q135 0 246.5 63.5t181.5 172.5l182 -109q-98 -152 -260 -242t-350 -90q-305 0 -518 212t-213 517t213 517t518 212q188 0 350 -90t260 -243l-182 -107q-68 109 -180.5 171.5t-247.5 62.5zM913 1864
l205 -99l-184 -229h-176z" />
    <glyph glyph-name="cacute" unicode="&#x107;" horiz-adv-x="1112" 
d="M590 -20q-221 0 -367.5 154.5t-146.5 379.5t146.5 380t367.5 155q137 0 256 -65.5t194 -178.5l-172 -100q-47 70 -120.5 109.5t-155.5 39.5q-135 0 -223 -98.5t-88 -241.5t88 -241.5t223 -98.5q82 0 155.5 40t120.5 110l172 -101q-76 -113 -194.5 -178t-255.5 -65z
M649 1475l205 -99l-184 -229h-176z" />
    <glyph glyph-name="Cdotaccent" unicode="&#x10a;" horiz-adv-x="1542" 
d="M852 1219q-221 0 -368.5 -150.5t-147.5 -372t148.5 -373t367.5 -151.5q135 0 246.5 63.5t181.5 172.5l182 -109q-98 -152 -260 -242t-350 -90q-305 0 -518 212t-213 517t213 517t518 212q188 0 350 -90t260 -243l-182 -107q-68 109 -180.5 171.5t-247.5 62.5zM855 1516
q-54 0 -94 38.5t-40 94t40 94.5t94 39t94 -39t40 -94.5t-40 -94t-94 -38.5z" />
    <glyph glyph-name="cdotaccent" unicode="&#x10b;" horiz-adv-x="1112" 
d="M590 -20q-221 0 -367.5 154.5t-146.5 379.5t146.5 380t367.5 155q137 0 256 -65.5t194 -178.5l-172 -100q-47 70 -120.5 109.5t-155.5 39.5q-135 0 -223 -98.5t-88 -241.5t88 -241.5t223 -98.5q82 0 155.5 40t120.5 110l172 -101q-76 -113 -194.5 -178t-255.5 -65z
M591 1126q-54 0 -94 39t-40 94.5t40 94.5t94 39t94 -39t40 -94.5t-40 -94.5t-94 -39z" />
    <glyph glyph-name="Ccaron" unicode="&#x10c;" horiz-adv-x="1542" 
d="M852 172q135 0 246.5 63.5t181.5 172.5l182 -109q-98 -152 -260 -242t-350 -90q-305 0 -518 212t-213 517t213 517t518 212q188 0 350 -90t260 -243l-182 -107q-68 109 -180.5 171.5t-247.5 62.5q-221 0 -368.5 -150.5t-147.5 -372t148.5 -373t367.5 -151.5zM932 1536
h-158l-231 248l86 86l225 -176l223 176l86 -86z" />
    <glyph glyph-name="ccaron" unicode="&#x10d;" horiz-adv-x="1112" 
d="M592 174q82 0 155.5 40t120.5 110l172 -101q-76 -113 -194.5 -178t-255.5 -65q-221 0 -367.5 154.5t-146.5 379.5t146.5 380t367.5 155q137 0 256 -65.5t194 -178.5l-172 -100q-47 70 -120.5 109.5t-155.5 39.5q-135 0 -223 -98.5t-88 -241.5t88 -241.5t223 -98.5z
M668 1147h-158l-231 248l86 86l225 -176l223 176l86 -86z" />
    <glyph glyph-name="Dcaron" unicode="&#x10e;" horiz-adv-x="1544" 
d="M676 205q236 0 384 136t148 354t-149.5 355.5t-382.5 137.5h-277v-983h277zM676 1393q319 0 533 -197t214 -500t-214 -499.5t-533 -196.5h-492v1393h492zM754 1516h-158l-231 247l86 86l225 -176l223 176l86 -86z" />
    <glyph glyph-name="dcaron" unicode="&#x10f;" horiz-adv-x="1423" 
d="M575.5 174q131.5 0 211 95.5t79.5 242.5t-79.5 242.5t-211 95.5t-211 -95.5t-79.5 -242.5t79.5 -242.5t211 -95.5zM1182 1434h202l-114 -547h-135zM856 1434h205v-1434h-205v160q-94 -180 -304 -180t-342 148t-130 381.5t133 384t337 151t306 -167.5v557z" />
    <glyph glyph-name="Dcroat" unicode="&#x110;" horiz-adv-x="1544" 
d="M676 205q236 0 384 136t148 354t-149.5 355.5t-382.5 137.5h-277v-410h441v-164h-441v-409h277zM676 1393q319 0 533 -197t214 -500t-214 -499.5t-533 -196.5h-492v614h-164v164h164v615h492z" />
    <glyph glyph-name="dcroat" unicode="&#x111;" horiz-adv-x="1216" 
d="M575.5 174q131.5 0 211 95.5t79.5 242.5t-79.5 242.5t-211 95.5t-211 -95.5t-79.5 -242.5t79.5 -242.5t211 -95.5zM1262 1272v-148h-201v-1124h-205v160q-94 -180 -304 -180t-342 148t-130 382t133 384t337 150t306 -167v247h-293v148h293v162h205v-162h201z" />
    <glyph glyph-name="Emacron" unicode="&#x112;" horiz-adv-x="1216" 
d="M1102 1188h-703v-389h492v-205h-492v-389h703v-205h-918v1393h918v-205zM985 1700v-164h-717v164h717z" />
    <glyph glyph-name="emacron" unicode="&#x113;" horiz-adv-x="1157" 
d="M579.5 850q-110.5 0 -180 -65.5t-90.5 -182.5h545q-4 123 -84 185.5t-190.5 62.5zM576.5 174q101.5 0 178 41t113.5 109l172 -101q-66 -111 -188.5 -177t-261.5 -66q-219 0 -356.5 153.5t-137.5 378.5t137.5 378.5t356.5 153.5q178 0 311 -111.5t158 -332.5
q10 -84 0 -182h-748q20 -117 92 -180.5t173.5 -63.5zM938 1331v-164h-717v164h717z" />
    <glyph glyph-name="Edotaccent" unicode="&#x116;" horiz-adv-x="1216" 
d="M1102 1188h-703v-389h492v-205h-492v-389h703v-205h-918v1393h918v-205zM628 1495q-54 0 -94 39t-40 94t39.5 94t94 39t94.5 -39t40 -94t-40 -94t-94 -39z" />
    <glyph glyph-name="edotaccent" unicode="&#x117;" horiz-adv-x="1157" 
d="M579.5 850q-110.5 0 -180 -65.5t-90.5 -182.5h545q-4 123 -84 185.5t-190.5 62.5zM576.5 174q101.5 0 178 41t113.5 109l172 -101q-66 -111 -188.5 -177t-261.5 -66q-219 0 -356.5 153.5t-137.5 378.5t137.5 378.5t356.5 153.5q178 0 311 -111.5t158 -332.5
q10 -84 0 -182h-748q20 -117 92 -180.5t173.5 -63.5zM581 1126q-54 0 -94.5 39t-40.5 94.5t40 94.5t94.5 39t94.5 -39t40 -94.5t-40 -94.5t-94 -39z" />
    <glyph glyph-name="Eogonek" unicode="&#x118;" horiz-adv-x="1216" 
d="M1010 -145.5q0 -65.5 50 -81t120 21.5v-147q-152 -53 -241 -2t-89 157.5t76 196.5h-742v1393h918v-205h-703v-389h492v-205h-492v-389h703v-205q-92 -80 -92 -145.5z" />
    <glyph glyph-name="eogonek" unicode="&#x119;" horiz-adv-x="1157" 
d="M579.5 850q-110.5 0 -180 -65.5t-90.5 -182.5h545q-4 123 -84 185.5t-190.5 62.5zM576.5 174q101.5 0 178 41t113.5 109l172 -101q-43 -76 -125 -137q-88 -80 -88 -143t49.5 -79t120.5 21v-147q-150 -53 -239.5 -2t-89.5 164q0 51 14 88q-41 -8 -92 -8
q-219 0 -356.5 153.5t-137.5 378.5t137.5 378.5t356.5 153.5q178 0 311 -111.5t158 -332.5q10 -84 0 -182h-748q20 -117 92 -180.5t173.5 -63.5z" />
    <glyph glyph-name="Ecaron" unicode="&#x11a;" horiz-adv-x="1216" 
d="M1102 1188h-703v-389h492v-205h-492v-389h703v-205h-918v1393h918v-205zM705 1516h-158l-232 247l86 86l226 -176l223 176l86 -86z" />
    <glyph glyph-name="ecaron" unicode="&#x11b;" horiz-adv-x="1157" 
d="M579.5 850q-110.5 0 -180 -65.5t-90.5 -182.5h545q-4 123 -84 185.5t-190.5 62.5zM576.5 174q101.5 0 178 41t113.5 109l172 -101q-66 -111 -188.5 -177t-261.5 -66q-219 0 -356.5 153.5t-137.5 378.5t137.5 378.5t356.5 153.5q178 0 311 -111.5t158 -332.5
q10 -84 0 -182h-748q20 -117 92 -180.5t173.5 -63.5zM657 1147h-157l-232 248l86 86l226 -176l223 176l86 -86z" />
    <glyph glyph-name="Gbreve" unicode="&#x11e;" horiz-adv-x="1665" 
d="M827 735h695v-94q0 -297 -191.5 -485.5t-490.5 -188.5t-509 212t-210 516t213 517t518 213q188 0 350 -90t260 -243l-182 -107q-68 109 -180.5 171.5t-249.5 62.5q-219 0 -366.5 -150.5t-147.5 -372.5t145.5 -372t372.5 -150q188 0 317 103.5t136 252.5h-480v205z
M854 1528q-141 0 -233.5 83t-92.5 212h144q0 -66 48 -104t134 -38t134 38t48 104h144q0 -129 -92.5 -212t-233.5 -83z" />
    <glyph glyph-name="gbreve" unicode="&#x11f;" horiz-adv-x="1236" 
d="M596 174q131 0 211 95.5t80 242.5t-80 242.5t-211 95.5t-211 -95.5t-80 -242.5t80 -242.5t211 -95.5zM877 1024h204v-958q-2 -227 -144 -366.5t-374 -139.5q-115 0 -228.5 51t-197.5 137l152 135q125 -129 273 -129t231.5 85t83.5 231v90q-95 -180 -305 -180t-342 148
t-130 382t134 384q130 150 336 150t307 -167v147zM622.5 1139q-141.5 0 -233.5 83t-92 212h143q0 -66 48.5 -104t134.5 -38t134 38t48 104h143q0 -129 -92 -212t-233.5 -83z" />
    <glyph glyph-name="Gdotaccent" unicode="&#x120;" horiz-adv-x="1665" 
d="M827 735h695v-94q0 -297 -191.5 -485.5t-490.5 -188.5t-509 212t-210 516t213 517t518 213q188 0 350 -90t260 -243l-182 -107q-68 109 -180.5 171.5t-249.5 62.5q-219 0 -366.5 -150.5t-147.5 -373t145.5 -372t372.5 -149.5q188 0 317 103.5t136 252.5h-480v205z
M851 1516q-54 0 -94 38.5t-40 94t40 94.5t94 39t94 -39t40 -94.5t-40 -94t-94 -38.5z" />
    <glyph glyph-name="gdotaccent" unicode="&#x121;" horiz-adv-x="1236" 
d="M596 174q131 0 211 95.5t80 242.5t-80 242.5t-211 95.5t-211 -95.5t-80 -242.5t80 -242.5t211 -95.5zM877 1024h204v-958q-2 -227 -144 -366.5t-374 -139.5q-115 0 -228.5 51t-197.5 137l152 135q125 -129 273 -129t231.5 85t83.5 231v90q-94 -180 -304.5 -180
t-342.5 148t-130 381.5t133.5 384t337 150.5t306.5 -167v147zM620 1126q-54 0 -94.5 39t-40.5 94.5t40 94.5t94.5 39t94.5 -39t40 -94.5t-40 -94.5t-94 -39z" />
    <glyph glyph-name="Gcommaaccent" unicode="&#x122;" horiz-adv-x="1665" 
d="M674 -571l61 448h205l-129 -448h-137zM827 735h695v-94q0 -297 -191.5 -485.5t-490.5 -188.5t-509 212t-210 516t213 517t518 213q188 0 350 -90t260 -243l-182 -107q-68 109 -180.5 171.5t-249.5 62.5q-219 0 -366.5 -150.5t-147.5 -372.5t145.5 -372t372.5 -150
q188 0 317 103.5t136 252.5h-480v205z" />
    <glyph glyph-name="gcommaaccent" unicode="&#x123;" horiz-adv-x="1236" 
d="M596 174q131 0 211 95.5t80 242.5t-80 242.5t-211 95.5t-211 -95.5t-80 -242.5t80 -242.5t211 -95.5zM877 1024h204v-958q-2 -227 -144 -366.5t-374 -139.5q-115 0 -228.5 51t-197.5 137l152 135q125 -129 273 -129t231.5 85t83.5 231v90q-95 -180 -305 -180t-342 148
t-130 382t134 384q130 150 336 150t307 -167v147zM780 1565l-61 -449h-205l129 449h137z" />
    <glyph glyph-name="Hbar" unicode="&#x126;" horiz-adv-x="1546" 
d="M1145 799v213h-746v-213h746zM1499 1176v-164h-137v-1012h-217v594h-746v-594h-215v1012h-139v164h139v217h215v-217h746v217h217v-217h137z" />
    <glyph glyph-name="hbar" unicode="&#x127;" horiz-adv-x="1220" 
d="M688 1047q170 0 279.5 -126t109.5 -329v-592h-205v549q0 145 -68 226q-66 81 -180 81t-189 -95t-75 -222v-539h-204v1169h-205v164h205v101h204v-101h410v-164h-410v-301q49 80 136.5 129.5t191.5 49.5z" />
    <glyph glyph-name="Imacron" unicode="&#x12a;" horiz-adv-x="612" 
d="M199 1393h215v-1393h-215v1393zM-51 1700h717v-164h-717v164z" />
    <glyph glyph-name="imacron" unicode="&#x12b;" horiz-adv-x="524" 
d="M160 1024h205v-1024h-205v1024zM-96 1331h717v-164h-717v164z" />
    <glyph glyph-name="Iogonek" unicode="&#x12e;" horiz-adv-x="612" 
d="M322 -145.5q0 -65.5 50 -81t120 21.5v-147q-152 -53 -241 -2t-89 157.5t76 196.5h-39v1393h215v-1393q-92 -80 -92 -145.5z" />
    <glyph glyph-name="iogonek" unicode="&#x12f;" horiz-adv-x="524" 
d="M272 -145.5q0 -65.5 50.5 -81t119.5 21.5v-147q-152 -53 -240.5 -2t-88.5 157.5t75 196.5h-28v1024h205v-1024q-93 -80 -93 -145.5zM263 1126q-54 0 -94 39t-40 94.5t40 94.5t94 39t94 -39t40 -94.5t-40 -94.5t-94 -39z" />
    <glyph glyph-name="Idotaccent" unicode="&#x130;" horiz-adv-x="612" 
d="M199 1393h215v-1393h-215v1393zM308 1495q-54 0 -94 39t-40 94t40 94t94 39t94 -39t40 -94t-40 -94t-94 -39z" />
    <glyph glyph-name="dotlessi" unicode="&#x131;" horiz-adv-x="524" 
d="M160 1024h205v-1024h-205v1024z" />
    <glyph glyph-name="Kcommaaccent" unicode="&#x136;" horiz-adv-x="1363" 
d="M561 -571l62 448h204l-129 -448h-137zM399 0h-215v1393h215v-676l648 676h282l-590 -605l594 -788h-256l-489 633l-189 -193v-440z" />
    <glyph glyph-name="kcommaaccent" unicode="&#x137;" horiz-adv-x="1101" 
d="M406 -571l61 448h205l-129 -448h-137zM360 0h-204v1434h204v-875l447 465h270l-403 -406l403 -618h-239l-314 469l-164 -166v-303z" />
    <glyph glyph-name="Lacute" unicode="&#x139;" horiz-adv-x="1179" 
d="M399 205h703v-205h-918v1393h215v-1188zM555 1745l-184 -229h-176l155 327z" />
    <glyph glyph-name="lacute" unicode="&#x13a;" horiz-adv-x="542" 
d="M170 1434h205v-1434h-205v1434zM332 1884l205 -98l-185 -230h-176z" />
    <glyph glyph-name="Lcommaaccent" unicode="&#x13b;" horiz-adv-x="1179" 
d="M477 -571l62 448h204l-129 -448h-137zM399 205h703v-205h-918v1393h215v-1188z" />
    <glyph glyph-name="lcommaaccent" unicode="&#x13c;" horiz-adv-x="542" 
d="M190 -123h205l-129 -448h-137zM170 1434h205v-1434h-205v1434z" />
    <glyph glyph-name="Lcaron" unicode="&#x13d;" horiz-adv-x="1179" 
d="M399 205h703v-205h-918v1393h215v-1188zM1079 1434l-151 -523h-129l86 523h194z" />
    <glyph glyph-name="lcaron" unicode="&#x13e;" horiz-adv-x="741" 
d="M498 1434h204l-159 -547h-135zM170 1434h205v-1434h-205v1434z" />
    <glyph glyph-name="Lslash" unicode="&#x141;" horiz-adv-x="1179" 
d="M399 205h703v-205h-918v530l-108 -63l-82 141l190 111v674h215v-551l215 125l82 -142l-297 -172v-448z" />
    <glyph glyph-name="lslash" unicode="&#x142;" horiz-adv-x="542" 
d="M375 0h-205v573l-82 -47l-76 129l158 90v689h205v-572l84 49l73 -129l-157 -90v-692z" />
    <glyph glyph-name="Nacute" unicode="&#x143;" horiz-adv-x="1546" 
d="M1147 1393h215v-1393h-174l-789 1004v-1004h-215v1393h172l791 -1006v1006zM1036 1745l-184 -229h-176l155 327z" />
    <glyph glyph-name="nacute" unicode="&#x144;" horiz-adv-x="1220" 
d="M688 1047q170 0 279.5 -126t109.5 -329v-592h-205v549q0 145 -68 226q-66 81 -180 81t-189 -95t-75 -222v-539h-204v1024h204v-156q49 80 136.5 129.5t191.5 49.5zM872 1376l-184 -229h-176l156 328z" />
    <glyph glyph-name="Ncommaaccent" unicode="&#x145;" horiz-adv-x="1546" 
d="M629 -571l61 448h205l-129 -448h-137zM1147 1393h215v-1393h-174l-789 1004v-1004h-215v1393h172l791 -1006v1006z" />
    <glyph glyph-name="ncommaaccent" unicode="&#x146;" horiz-adv-x="1220" 
d="M465 -571l61 448h205l-129 -448h-137zM688 1047q170 0 279.5 -126t109.5 -329v-592h-205v549q0 145 -68 226q-66 81 -180 81t-189 -95t-75 -222v-539h-204v1024h204v-156q49 80 136.5 129.5t191.5 49.5z" />
    <glyph glyph-name="Ncaron" unicode="&#x147;" horiz-adv-x="1546" 
d="M1147 1393h215v-1393h-174l-789 1004v-1004h-215v1393h172l791 -1006v1006zM850 1516h-158l-231 247l86 86l225 -176l223 176l86 -86z" />
    <glyph glyph-name="ncaron" unicode="&#x148;" horiz-adv-x="1220" 
d="M688 1047q170 0 279.5 -126t109.5 -329v-592h-205v549q0 145 -68 226q-66 81 -180 81t-189 -95t-75 -222v-539h-204v1024h204v-156q49 80 136.5 129.5t191.5 49.5zM686 1147h-158l-231 248l86 86l225 -176l223 176l87 -86z" />
    <glyph glyph-name="Eng" unicode="&#x14a;" horiz-adv-x="1546" 
d="M1147 1393h215v-1485q0 -156 -83 -237t-235 -81h-143v195h133q113 0 113 123v143l-748 953v-1004h-215v1393h172l791 -1006v1006z" />
    <glyph glyph-name="eng" unicode="&#x14b;" horiz-adv-x="1220" 
d="M688 1047q170 0 280 -126t109 -329v-694q0 -150 -79 -229t-228 -79h-143v195h133q113 0 112 123v641q0 145 -67 226t-181 81t-189 -95t-75 -222v-539h-204v1024h204v-156q48 80 136 130t192 49z" />
    <glyph glyph-name="Omacron" unicode="&#x14c;" horiz-adv-x="1697" 
d="M850 172q217 0 364.5 151.5t147.5 371.5t-146.5 372t-365.5 152t-366.5 -150.5t-147.5 -372t148.5 -373t365.5 -151.5zM850 -33q-303 0 -516 212t-213 517t213 517t516 212t515 -213t212 -516t-212 -516t-515 -213zM492 1720h716v-164h-716v164z" />
    <glyph glyph-name="omacron" unicode="&#x14d;" horiz-adv-x="1257" 
d="M629 174q137 0 232 97.5t95 240.5t-95 240.5t-232 97.5t-232.5 -97.5t-95.5 -240.5t95.5 -240.5t232.5 -97.5zM629 -20q-221 0 -377 155.5t-156 376.5t156 376.5t377 155.5t376.5 -155.5t155.5 -376.5t-155.5 -376.5t-376.5 -155.5zM270 1331h717v-164h-717v164z" />
    <glyph glyph-name="Ohungarumlaut" unicode="&#x150;" horiz-adv-x="1697" 
d="M850 172q217 0 364.5 151.5t147.5 371.5t-146.5 372t-365.5 152t-366.5 -150.5t-147.5 -372t148.5 -373t365.5 -151.5zM850 -33q-303 0 -516 212t-213 517t213 517t516 212t515 -213t212 -516t-212 -516t-515 -213zM1069 1864l205 -99l-184 -229h-177zM764 1864l205 -99
l-185 -229h-176z" />
    <glyph glyph-name="ohungarumlaut" unicode="&#x151;" horiz-adv-x="1257" 
d="M629 174q137 0 232 97.5t95 240.5t-95 240.5t-232 97.5t-232.5 -97.5t-95.5 -240.5t95.5 -240.5t232.5 -97.5zM629 -20q-221 0 -377 155.5t-156 376.5t156 376.5t377 155.5t376.5 -155.5t155.5 -376.5t-155.5 -376.5t-376.5 -155.5zM848 1475l205 -99l-185 -229h-176z
M543 1475l205 -99l-185 -229h-176z" />
    <glyph glyph-name="OE" unicode="&#x152;" horiz-adv-x="2414" 
d="M850 172q217 0 364.5 151.5t147.5 371.5t-146.5 372t-365.5 152t-366.5 -150.5t-147.5 -372t148.5 -373t365.5 -151.5zM2300 1188h-703v-389h492v-205h-492v-389h703v-205h-918v199q-215 -231 -525 -231.5t-523 211.5t-213 517t213 517t523 212t525 -231v199h918v-205z
" />
    <glyph glyph-name="oe" unicode="&#x153;" horiz-adv-x="2017" 
d="M1439.5 850q-110.5 0 -180 -65.5t-90.5 -182.5h545q-4 123 -84 185.5t-190.5 62.5zM629 174q137 0 232 97.5t95 240.5t-95 240.5t-232 97.5t-232.5 -97.5t-95.5 -240.5t95.5 -240.5t232.5 -97.5zM1436.5 174q101.5 0 178.5 41t114 109l172 -101q-66 -111 -189 -177
t-262 -66q-256 0 -399 206q-74 -96 -183.5 -151t-236.5 -55q-223 0 -379 155.5t-156 376.5t156 376.5t379 155.5q127 0 236.5 -55t183.5 -151q143 207 399 206q178 0 311 -111.5t158 -332.5q10 -84 0 -182h-748q20 -117 92 -180.5t173.5 -63.5z" />
    <glyph glyph-name="Racute" unicode="&#x154;" horiz-adv-x="1347" 
d="M399 1188v-420h387q113 0 179.5 59.5t66.5 150.5t-67.5 150.5t-178.5 59.5h-387zM399 561v-561h-215v1393h602q197 0 329 -118t132 -296q0 -139 -85 -248.5t-228 -148.5l336 -582h-250l-324 561h-297zM926 1745l-185 -229h-176l156 327z" />
    <glyph glyph-name="racute" unicode="&#x155;" horiz-adv-x="778" 
d="M719 1047v-205q-186 0 -272.5 -85t-86.5 -218v-539h-204v1024h204v-147q106 170 359 170zM645 1376l-184 -229h-176l155 328z" />
    <glyph glyph-name="Rcommaaccent" unicode="&#x156;" horiz-adv-x="1347" 
d="M518 -571l62 448h204l-129 -448h-137zM399 1188v-420h387q113 0 179.5 59.5t66.5 150.5t-67.5 150.5t-178.5 59.5h-387zM399 561v-561h-215v1393h602q197 0 329 -118t132 -296q0 -139 -85 -248.5t-228 -148.5l336 -582h-250l-324 561h-297z" />
    <glyph glyph-name="rcommaaccent" unicode="&#x157;" horiz-adv-x="778" 
d="M115 -571l61 448h205l-129 -448h-137zM719 1047v-205q-186 0 -272.5 -85t-86.5 -218v-539h-204v1024h204v-147q106 170 359 170z" />
    <glyph glyph-name="Rcaron" unicode="&#x158;" horiz-adv-x="1347" 
d="M399 1188v-420h387q113 0 179.5 59.5t66.5 150.5t-67.5 150.5t-178.5 59.5h-387zM399 561v-561h-215v1393h602q197 0 329 -118t132 -296q0 -139 -85 -248.5t-228 -148.5l336 -582h-250l-324 561h-297zM739 1516h-157l-232 247l86 86l226 -176l223 176l86 -86z" />
    <glyph glyph-name="rcaron" unicode="&#x159;" horiz-adv-x="778" 
d="M719 1047v-205q-186 0 -272.5 -85t-86.5 -218v-539h-204v1024h204v-147q106 170 359 170zM459 1147h-158l-231 248l86 86l225 -176l223 176l86 -86z" />
    <glyph glyph-name="Sacute" unicode="&#x15a;" horiz-adv-x="1306" 
d="M1194 401q0 -193 -149.5 -313.5t-381 -120.5t-386 102.5t-189.5 264.5l205 78q31 -109 131 -174.5t242.5 -65.5t227.5 60.5t85 154.5q1 111 -147 161q-69 23 -193.5 47.5t-195 49.5t-142.5 70q-151 94 -151 286.5t140 308t356 115.5t357.5 -99t176.5 -267l-203 -78
q-25 106 -112 172t-214 66t-206.5 -54.5t-79.5 -144.5t80.5 -136t199.5 -71.5t163 -37t112.5 -34t108.5 -50t83 -67.5q82 -76 82 -223zM721 1864l205 -99l-185 -229h-176z" />
    <glyph glyph-name="sacute" unicode="&#x15b;" horiz-adv-x="958" 
d="M860 286q0 -138 -111.5 -225.5t-277.5 -87.5t-272.5 76t-130.5 201l182 55q18 -68 73.5 -107.5t136.5 -39.5t138 32.5t57 77.5t-32.5 73t-69.5 41q-37 12 -110 34q-129 38 -229.5 103.5t-100.5 209t104.5 231t257.5 87.5t252.5 -76t122.5 -201l-176 -55
q-14 70 -66.5 108.5t-124 38.5t-119 -33.5t-47.5 -84t47.5 -79t182.5 -69.5t203 -90q110 -82 110 -220zM537 1475l204 -99l-184 -229h-176z" />
    <glyph glyph-name="Scedilla" unicode="&#x15e;" horiz-adv-x="1306" 
d="M666.5 172q142.5 0 227.5 60.5t85 154.5q1 111 -147 161q-69 23 -193.5 47.5t-195 49.5t-142.5 70q-151 94 -151 286.5t140 308t356 115.5t357.5 -99t176.5 -267l-203 -78q-25 106 -112 172t-214 66t-206.5 -54.5t-79.5 -144.5t80.5 -136t199.5 -71.5t163 -37t112.5 -34
t108.5 -50t83 -67.5q82 -76 82 -237.5t-129 -280t-342 -137.5l-111 -286l-180 94l125 196q-184 20 -311 118.5t-158 242.5l205 78q31 -109 131 -174.5t242.5 -65.5z" />
    <glyph glyph-name="scedilla" unicode="&#x15f;" horiz-adv-x="958" 
d="M860 298q0 -126 -79 -208t-210 -106l-114 -301l-181 94l127 200q-135 14 -224 87t-111 186l182 55q18 -68 73.5 -107.5t136.5 -39.5t138 32.5t57 77.5t-32.5 73t-69.5 41q-37 12 -110 34q-129 38 -229.5 103.5t-100.5 209t104.5 231t257.5 87.5t252.5 -76t122.5 -201
l-176 -55q-14 70 -66.5 108.5t-124 38.5t-119 -33.5t-47.5 -84t47.5 -79t182.5 -69.5t203 -90q110 -82 110 -208z" />
    <glyph glyph-name="Scaron" unicode="&#x160;" horiz-adv-x="1306" 
d="M1194 401q0 -193 -149.5 -313.5t-381 -120.5t-386 102.5t-189.5 264.5l205 78q31 -109 131 -174.5t242.5 -65.5t227.5 60.5t85 154.5q1 111 -147 161q-69 23 -193.5 47.5t-195 49.5t-142.5 70q-151 94 -151 286.5t140 308t356 115.5t357.5 -99t176.5 -267l-203 -78
q-25 106 -112 172t-214 66t-206.5 -54.5t-79.5 -144.5t80.5 -136t199.5 -71.5t163 -37t112.5 -34t108.5 -50t83 -67.5q82 -76 82 -223zM739 1536h-157l-232 248l86 86l226 -176l223 176l86 -86z" />
    <glyph glyph-name="scaron" unicode="&#x161;" horiz-adv-x="958" 
d="M471 -27q-166 0 -272.5 76t-130.5 201l182 55q18 -68 73.5 -107.5t136.5 -39.5t138 32.5t57 77.5t-32.5 73t-69.5 41q-37 12 -110 34q-129 38 -229.5 103.5t-100.5 209t104.5 231t257.5 87.5t252.5 -76t122.5 -201l-176 -55q-14 70 -66.5 108.5t-124 38.5t-119 -33.5
t-47.5 -84t47.5 -79t182.5 -69.5t203 -90q111 -82 110.5 -220t-112 -225.5t-277.5 -87.5zM555 1147h-158l-231 248l86 86l225 -176l223 176l86 -86z" />
    <glyph glyph-name="uni0162" unicode="&#x162;" horiz-adv-x="1214" 
d="M1133 1393v-205h-418v-1188h-17l-127 -299l-176 84l152 215h-47v1188h-418v205h1051z" />
    <glyph glyph-name="uni0163" unicode="&#x163;" horiz-adv-x="800" 
d="M705 840h-246v-523q0 -123 112 -122h134v-195h-119l-123 -317l-180 94l153 241q-182 57 -182 289v533h-184v184h184v266l205 62v-328h246v-184z" />
    <glyph glyph-name="Tcaron" unicode="&#x164;" horiz-adv-x="1214" 
d="M1133 1393v-205h-418v-1188h-215v1188h-418v205h1051zM684 1516h-158l-231 247l86 86l225 -176l223 176l86 -86z" />
    <glyph glyph-name="tcaron" unicode="&#x165;" horiz-adv-x="800" 
d="M459 1024h246v-184h-246v-523q0 -123 112 -122h134v-195h-144q-150 0 -228.5 79t-78.5 228v533h-184v184h184v266l205 62v-328zM748 1556l-142 -440h-121l80 440h183z" />
    <glyph glyph-name="Tbar" unicode="&#x166;" horiz-adv-x="1214" 
d="M1133 1188h-418v-357h305v-163h-305v-668h-215v668h-299v163h299v357h-418v205h1051v-205z" />
    <glyph glyph-name="tbar" unicode="&#x167;" horiz-adv-x="800" 
d="M705 840h-246v-193h246v-147h-246v-183q0 -123 112 -122h134v-195h-144q-150 0 -228.5 79t-78.5 228v193h-176v147h176v193h-184v184h184v266l205 62v-328h246v-184z" />
    <glyph glyph-name="Umacron" unicode="&#x16a;" horiz-adv-x="1501" 
d="M1124 1393h215v-783q0 -291 -160.5 -467t-427 -176t-428 176t-161.5 467v783h215v-783q0 -199 102.5 -318.5t271.5 -119.5t271 120t102 318v783zM393 1700h717v-164h-717v164z" />
    <glyph glyph-name="umacron" unicode="&#x16b;" horiz-adv-x="1218" 
d="M860 1024h205v-1024h-205v156q-49 -80 -136 -129.5t-192 -49.5q-170 0 -279.5 126t-109.5 329v592h205v-549q0 -145 67.5 -226t181.5 -81t188.5 95t74.5 222v539zM963 1331v-164h-717v164h717z" />
    <glyph glyph-name="Uring" unicode="&#x16e;" horiz-adv-x="1501" 
d="M1124 1393h215v-783q0 -291 -160.5 -467t-427 -176t-428 176t-161.5 467v783h215v-783q0 -199 102.5 -318.5t271.5 -119.5t271 120t102 318v783zM766 1458q45 0 76.5 32t31.5 77t-31.5 76.5t-76.5 31.5t-78 -31.5t-33 -76.5t33 -77t78 -32zM765 1376q-79 0 -135.5 56.5
t-56.5 134.5t56.5 134t135.5 56t135 -56t56 -134t-56 -134.5t-135 -56.5z" />
    <glyph glyph-name="uring" unicode="&#x16f;" horiz-adv-x="1218" 
d="M860 1024h205v-1024h-205v156q-49 -80 -136 -129.5t-192 -49.5q-170 0 -279.5 126t-109.5 329v592h205v-549q0 -145 67.5 -226t181.5 -81t188.5 95t74.5 222v539zM596 1368q-45 0 -78 -31.5t-33 -77t33 -77t78 -31.5t77 31.5t32 77t-32 77t-77 31.5zM595 1069
q-79 0 -135.5 56.5t-56.5 134t56.5 134t135.5 56.5t135 -56.5t56 -134t-56 -134t-135 -56.5z" />
    <glyph glyph-name="Uhungarumlaut" unicode="&#x170;" horiz-adv-x="1501" 
d="M1124 1393h215v-783q0 -291 -160.5 -467t-427 -176t-428 176t-161.5 467v783h215v-783q0 -199 102.5 -318.5t271.5 -119.5t271 120t102 318v783zM971 1843l205 -98l-185 -229h-176zM666 1843l204 -98l-184 -229h-176z" />
    <glyph glyph-name="uhungarumlaut" unicode="&#x171;" horiz-adv-x="1218" 
d="M860 1024h205v-1024h-205v156q-49 -80 -136 -129.5t-192 -49.5q-170 0 -279.5 126t-109.5 329v592h205v-549q0 -145 67.5 -226t181.5 -81t188.5 95t74.5 222v539zM844 1147h-176l155 328l205 -99zM723 1376l-184 -229h-177l156 328z" />
    <glyph glyph-name="Uogonek" unicode="&#x172;" horiz-adv-x="1501" 
d="M1124 1393h215v-783q0 -197 -76.5 -345t-215.5 -226q-91 -77 -91 -143t50.5 -81.5t119.5 21.5v-147q-152 -53 -240.5 -2t-88.5 163q0 68 28 121q-49 -4 -73 -4q-266 0 -428 176t-162 467v783h215v-783q0 -199 102.5 -318.5t271.5 -119.5t271 120t102 318v783z" />
    <glyph glyph-name="uogonek" unicode="&#x173;" horiz-adv-x="1218" 
d="M973 -145.5q0 -65.5 50 -81t120 21.5v-147q-152 -53 -241 -2t-89 157.5t76 196.5h-29v156q-49 -80 -136 -129.5t-192 -49.5q-170 0 -279.5 126t-109.5 329v592h205v-549q0 -145 67.5 -226t181.5 -81t188.5 95t74.5 222v539h205v-1024q-92 -80 -92 -145.5z" />
    <glyph glyph-name="Wcircumflex" unicode="&#x174;" horiz-adv-x="2226" 
d="M1923 1393h229l-413 -1393h-277l-348 1153l-348 -1153h-277l-415 1393h229l324 -1149l350 1149h272l350 -1149zM1114 1645l-225 -177l-86 86l231 248h158l231 -248l-86 -86z" />
    <glyph glyph-name="wcircumflex" unicode="&#x175;" horiz-adv-x="1751" 
d="M1473 1024h215l-308 -1024h-262l-241 805l-242 -805h-262l-307 1024h215l223 -805l244 805h258l243 -805zM877 1276l-226 -176l-86 86l232 248h157l232 -248l-86 -86z" />
    <glyph glyph-name="Ycircumflex" unicode="&#x176;" horiz-adv-x="1386" 
d="M801 0h-215v569l-549 824h262l395 -609l393 609h263l-549 -824v-569zM705 1645l-226 -177l-86 86l232 248h157l232 -248l-86 -86z" />
    <glyph glyph-name="ycircumflex" unicode="&#x177;" horiz-adv-x="1165" 
d="M897 1024h211l-592 -1434h-217l190 457l-436 977h226l319 -719zM584 1276l-226 -176l-86 86l232 248h158l231 -248l-86 -86z" />
    <glyph glyph-name="Ydieresis" unicode="&#x178;" horiz-adv-x="1386" 
d="M801 0h-215v569l-549 824h262l395 -609l393 609h263l-549 -824v-569zM890 1495q-54 0 -94 39t-40 94t40 94t94 39t94 -39t40 -94t-40 -94t-94 -39zM519 1495q-54 0 -94 39t-40 94t40 94t94 39t94 -39t40 -94t-40 -94t-94 -39z" />
    <glyph glyph-name="Zacute" unicode="&#x179;" horiz-adv-x="1372" 
d="M1243 205v-205h-1110v170l772 1018h-772v205h1067v-170l-768 -1018h811zM954 1745l-184 -229h-176l156 327z" />
    <glyph glyph-name="zacute" unicode="&#x17a;" horiz-adv-x="995" 
d="M895 195v-195h-789v170l519 659h-519v195h779v-170l-518 -659h528zM766 1376l-184 -229h-176l155 328z" />
    <glyph glyph-name="Zdotaccent" unicode="&#x17b;" horiz-adv-x="1372" 
d="M1243 205v-205h-1110v170l772 1018h-772v205h1067v-170l-768 -1018h811zM691 1495q-54 0 -94 39t-40 94t40 94t94 39t94 -39t40 -94t-40 -94t-94 -39z" />
    <glyph glyph-name="zdotaccent" unicode="&#x17c;" horiz-adv-x="995" 
d="M895 195v-195h-789v170l519 659h-519v195h779v-170l-518 -659h528zM503 1126q-54 0 -94 39t-40 94.5t40 94.5t94 39t94 -39t40 -94.5t-40 -94.5t-94 -39z" />
    <glyph glyph-name="Zcaron" unicode="&#x17d;" horiz-adv-x="1372" 
d="M1243 205v-205h-1110v170l772 1018h-772v205h1067v-170l-768 -1018h811zM768 1516h-158l-231 247l86 86l225 -176l223 176l86 -86z" />
    <glyph glyph-name="zcaron" unicode="&#x17e;" horiz-adv-x="995" 
d="M895 195v-195h-789v170l519 659h-519v195h779v-170l-518 -659h528zM580 1147h-158l-232 248l86 86l226 -176l223 176l86 -86z" />
    <glyph glyph-name="Scommaaccent" unicode="&#x218;" horiz-adv-x="1306" 
d="M551 -123h205l-129 -448h-138zM1194 401q0 -193 -149.5 -313.5t-381 -120.5t-386 102.5t-189.5 264.5l205 78q31 -109 131 -174.5t242.5 -65.5t227.5 60.5t85 154.5q1 111 -147 161q-69 23 -193.5 47.5t-195 49.5t-142.5 70q-151 94 -151 286.5t140 308t356 115.5
t357.5 -99t176.5 -267l-203 -78q-25 106 -112 172t-214 66t-206.5 -54.5t-79.5 -144.5t80.5 -136t199.5 -71.5t163 -37t112.5 -34t108.5 -50t83 -67.5q82 -76 82 -223z" />
    <glyph glyph-name="scommaaccent" unicode="&#x219;" horiz-adv-x="958" 
d="M395 -123h205l-129 -448h-137zM860 286q0 -138 -111.5 -225.5t-277.5 -87.5t-272.5 76t-130.5 201l182 55q18 -68 73.5 -107.5t136.5 -39.5t138 32.5t57 77.5t-32.5 73t-69.5 41q-37 12 -110 34q-129 38 -229.5 103.5t-100.5 209t104.5 231t257.5 87.5t252.5 -76
t122.5 -201l-176 -55q-14 70 -66.5 108.5t-124 38.5t-119 -33.5t-47.5 -84t47.5 -79t182.5 -69.5t203 -90q110 -82 110 -220z" />
    <glyph glyph-name="uni021A" unicode="&#x21a;" horiz-adv-x="1214" 
d="M449 -588l61 449h205l-129 -449h-137zM1133 1393v-205h-418v-1188h-215v1188h-418v205h1051z" />
    <glyph glyph-name="uni021B" unicode="&#x21b;" horiz-adv-x="800" 
d="M340 -571l61 448h205l-129 -448h-137zM705 840h-246v-523q0 -123 112 -122h134v-195h-144q-150 0 -228.5 79t-78.5 228v533h-184v184h184v266l205 62v-328h246v-184z" />
    <glyph glyph-name="gravecomb" unicode="&#x300;" 
d="M-602 1475l156 -328h-177l-184 229z" />
    <glyph glyph-name="acutecomb" unicode="&#x301;" 
d="M-553 1475l205 -99l-184 -229h-177z" />
    <glyph glyph-name="uni0302" unicode="&#x302;" 
d="M-303 1186l-86 -86l-223 176l-226 -176l-86 86l232 248h157z" />
    <glyph glyph-name="tildecomb" unicode="&#x303;" 
d="M-360 1391h137q0 -117 -54.5 -187.5t-136.5 -70.5t-162 59t-117 59q-36 0 -50.5 -21.5t-14.5 -72.5h-137q0 117 53.5 187.5t139.5 70.5t184 -76q57 -43 96 -43q62 1 62 95z" />
    <glyph glyph-name="uni0304" unicode="&#x304;" 
d="M-983 1331h717v-164h-717v164z" />
    <glyph glyph-name="uni0306" unicode="&#x306;" 
d="M-426 1434h143q0 -129 -92 -212t-233.5 -83t-233.5 83t-92 212h143q0 -66 48.5 -104t134.5 -38t134 38t48 104z" />
    <glyph glyph-name="uni0307" unicode="&#x307;" 
d="M-558 1126q-54 0 -94 39t-40 94.5t40 94.5t94 39t94 -39t40 -94.5t-40 -94.5t-94 -39z" />
    <glyph glyph-name="uni0308" unicode="&#x308;" 
d="M-374 1126q-54 0 -94 39t-40 94.5t40 94.5t94 39t94 -39t40 -94.5t-40 -94.5t-94 -39zM-744 1126q-54 0 -94.5 39t-40.5 94.5t40 94.5t94.5 39t94.5 -39t40 -94.5t-40 -94.5t-94 -39z" />
    <glyph glyph-name="uni030A" unicode="&#x30a;" 
d="M-557 1151q45 0 76.5 31.5t31.5 77t-31.5 77t-76.5 31.5t-78 -31.5t-33 -77t33 -77t78 -31.5zM-558 1069q-79 0 -135.5 56.5t-56.5 134t56.5 134t135.5 56.5t135 -56.5t56 -134t-56 -134t-135 -56.5z" />
    <glyph glyph-name="uni030B" unicode="&#x30b;" 
d="M-410 1475l205 -99l-184 -229h-176zM-715 1475l205 -99l-184 -229h-176z" />
    <glyph glyph-name="uni030C" unicode="&#x30c;" 
d="M-389 1481l86 -86l-232 -248h-157l-232 248l86 86l226 -176z" />
    <glyph glyph-name="uni0312" unicode="&#x312;" 
d="M-176 1116h-205l129 449h137z" />
    <glyph glyph-name="uni0326" unicode="&#x326;" 
d="M-1034 -123h205l-129 -448h-138z" />
    <glyph glyph-name="uni0327" unicode="&#x327;" 
d="M-647 -317l-180 94l153 241h156z" />
    <glyph glyph-name="uni0328" unicode="&#x328;" 
d="M-614 -196.5q0 106.5 75 196.5h177q-92 -80 -92.5 -145.5t49 -81t120.5 21.5v-147q-150 -53 -239.5 -2t-89.5 157.5z" />
    <glyph glyph-name="uni0335" unicode="&#x335;" 
d="M-1085 748h819v-164h-819v164z" />
    <glyph glyph-name="uni0336" unicode="&#x336;" 
d="M-1341 723h1454v-164h-1454v164z" />
    <glyph glyph-name="uni0337" unicode="&#x337;" 
d="M-995 1004h716v-164h-716v164z" />
    <glyph glyph-name="uni0338" unicode="&#x338;" 
d="M-709 1475h174v-1926h-174v1926z" />
    <glyph glyph-name="pi" unicode="&#x3c0;" horiz-adv-x="1374" 
d="M1124 893v-571q0 -207 33 -322h-194q-39 57 -39 301v592h-418q-10 -213 -60 -493t-106 -400h-197q61 150 110 418q48 268 56 475q-182 0 -268 -29l-27 121q98 61 351 62h968l-18 -154h-191z" />
    <glyph glyph-name="Wgrave" unicode="&#x1e80;" horiz-adv-x="2226" 
d="M1923 1393h229l-413 -1393h-277l-348 1153l-348 -1153h-277l-415 1393h229l324 -1149l350 1149h272l350 -1149zM1221 1516h-177l-184 229l205 98z" />
    <glyph glyph-name="wgrave" unicode="&#x1e81;" horiz-adv-x="1751" 
d="M1473 1024h215l-308 -1024h-262l-241 805l-242 -805h-262l-307 1024h215l223 -805l244 805h258l243 -805zM983 1147h-176l-184 229l204 99z" />
    <glyph glyph-name="Wacute" unicode="&#x1e82;" horiz-adv-x="2226" 
d="M1923 1393h229l-413 -1393h-277l-348 1153l-348 -1153h-277l-415 1393h229l324 -1149l350 1149h272l350 -1149zM1378 1745l-184 -229h-176l156 327z" />
    <glyph glyph-name="wacute" unicode="&#x1e83;" horiz-adv-x="1751" 
d="M1473 1024h215l-308 -1024h-262l-241 805l-242 -805h-262l-307 1024h215l223 -805l244 805h258l243 -805zM1141 1376l-185 -229h-176l156 328z" />
    <glyph glyph-name="Wdieresis" unicode="&#x1e84;" horiz-adv-x="2226" 
d="M1923 1393h229l-413 -1393h-277l-348 1153l-348 -1153h-277l-415 1393h229l324 -1149l350 1149h272l350 -1149zM1299 1495q-54 0 -94 39t-40 94t40 94t94 39t94.5 -39t40.5 -94t-40.5 -94t-94.5 -39zM929 1495q-54 0 -94 39t-40 94t39.5 94t94 39t94.5 -39t40 -94
t-40 -94t-94 -39z" />
    <glyph glyph-name="wdieresis" unicode="&#x1e85;" horiz-adv-x="1751" 
d="M1473 1024h215l-308 -1024h-262l-241 805l-242 -805h-262l-307 1024h215l223 -805l244 805h258l243 -805zM1062 1126q-54 0 -94 39t-40 94.5t40 94.5t94 39t94 -39t40 -94.5t-40 -94.5t-94 -39zM691 1126q-54 0 -94 39t-40 94.5t40 94.5t94 39t94 -39t40 -94.5t-40 -94.5
t-94 -39z" />
    <glyph glyph-name="Ygrave" unicode="&#x1ef2;" horiz-adv-x="1386" 
d="M801 0h-215v569l-549 824h262l395 -609l393 609h263l-549 -824v-569zM811 1516h-176l-184 229l204 98z" />
    <glyph glyph-name="ygrave" unicode="&#x1ef3;" horiz-adv-x="1165" 
d="M897 1024h211l-592 -1434h-217l190 457l-436 977h226l319 -719zM690 1147h-176l-184 229l205 99z" />
    <glyph glyph-name="endash" unicode="&#x2013;" horiz-adv-x="1187" 
d="M133 492v184h922v-184h-922z" />
    <glyph glyph-name="emdash" unicode="&#x2014;" horiz-adv-x="1781" 
d="M133 492v184h1516v-184h-1516z" />
    <glyph glyph-name="quoteleft" unicode="&#x2018;" horiz-adv-x="600" 
d="M326 1139q66 0 108 -43t43 -110q0 -67 -47 -112t-121 -45t-130 70t-56 172q0 155 101 269t245 114v-123q-78 0 -134 -58t-67 -149q27 15 58 15z" />
    <glyph glyph-name="quoteright" unicode="&#x2019;" horiz-adv-x="600" 
d="M291 1454q74 0 130 -70t56 -172q0 -154 -101 -268t-245 -115v123q78 0 134 58t67 149q-27 -14 -58 -14q-66 0 -108 43q-42 44 -43 110q0 66 47 111t121 45z" />
    <glyph glyph-name="quotesinglbase" unicode="&#x201a;" horiz-adv-x="450" 
d="M186 266h226l-224 -547h-149z" />
    <glyph glyph-name="quotedblleft" unicode="&#x201c;" horiz-adv-x="1056" 
d="M782 1139q66 0 109 -43t43 -110t-47 -112t-121 -45t-130 70t-56 172q0 155 101 269t245 114v-123q-78 0 -134 -58t-67 -149q26 15 57 15zM326 1139q66 0 108 -43t43 -110q0 -67 -47 -112t-121 -45t-130 70t-56 172q0 155 101 269t245 114v-123q-78 0 -134 -58t-67 -149
q27 15 58 15z" />
    <glyph glyph-name="quotedblright" unicode="&#x201d;" horiz-adv-x="1056" 
d="M731 1145q-67 0 -109 43q-42 44 -42 110t46 111t121 45t131 -70t56 -172q0 -154 -101 -268t-245 -115v123q78 0 134 58t66 149q-27 -14 -57 -14zM291 1454q74 0 130 -70t56 -172q0 -154 -101 -268t-245 -115v123q78 0 134 58t67 149q-27 -14 -58 -14q-66 0 -108 43
q-42 44 -43 110q0 66 47 111t121 45z" />
    <glyph glyph-name="quotedblbase" unicode="&#x201e;" horiz-adv-x="825" 
d="M561 266h225l-223 -547h-149zM186 266h226l-224 -547h-149z" />
    <glyph glyph-name="dagger" unicode="&#x2020;" horiz-adv-x="1220" 
d="M516 1454h189l-21 -461l440 17v-170l-440 16l21 -962h-189l19 962l-443 -16v170l443 -17z" />
    <glyph glyph-name="daggerdbl" unicode="&#x2021;" horiz-adv-x="1220" 
d="M516 1454h184l-16 -426l442 16v-167l-442 16v-434l442 16v-168l-442 17l16 -430h-184l14 430l-436 -17v168l438 -16v434l-438 -16v167l438 -16z" />
    <glyph glyph-name="bullet" unicode="&#x2022;" horiz-adv-x="983" 
d="M494 993q133 0 229 -95t96 -231q0 -137 -96 -233t-229 -96t-232 96q-98 96 -98 232t98 231q99 96 232 96z" />
    <glyph glyph-name="ellipsis" unicode="&#x2026;" horiz-adv-x="1656" 
d="M1217 133q-1 68 47 115t115 47t115 -47t48 -115t-48 -116t-115 -48t-115 48t-47 116zM666 133q0 68 48 115t114 47q67 0 115 -47t48 -115t-48 -116t-115 -48q-66 0 -114 48t-48 116zM278 295q66 0 114 -47t48 -115t-48 -116t-114 -48t-115 48q-48 48 -48 116t48 115
t115 47z" />
    <glyph glyph-name="perthousand" unicode="&#x2030;" horiz-adv-x="2717" 
d="M2248 553q-87 1 -153 -63q-65 -64 -65 -153t66 -154t152 -65q88 0 152 64t64 154t-64 154t-152 63zM1645 336q-1 90 -65 154t-151 63q-87 1 -153 -63t-66 -153t66 -154t153 -65t151 64t65 154zM2249 705q151 0 259 -108q108 -107 108 -261t-110 -262q-108 -108 -258 -107
q-150 0 -260 109q-110 110 -110 262t110 260t261 107zM1430 705q150 0 258 -108q108 -107 108 -261t-108 -262t-258 -107q-150 0 -261 109q-111 110 -111 262t112 260q110 108 260 107zM473 1272q-89 0 -153 -62t-64 -152q0 -88 65 -152t153 -64t150 62t62 152t-62 154
q-62 62 -151 62zM473 1425q151 1 259 -107t108 -262t-109 -260q-109 -108 -259 -108t-260 109t-110 261t110 260q110 107 261 107zM1331 1434l142 -93l-906 -1382l-141 92z" />
    <glyph glyph-name="guilsinglleft" unicode="&#x2039;" horiz-adv-x="864" 
d="M711 952l-340 -379l340 -378h-248l-340 378l340 379h248z" />
    <glyph glyph-name="guilsinglright" unicode="&#x203a;" horiz-adv-x="864" 
d="M401 952l340 -379l-340 -378h-247l340 378l-340 379h247z" />
    <glyph glyph-name="fraction" unicode="&#x2044;" horiz-adv-x="337" 
d="M584 1436l98 -64l-928 -1415l-98 63z" />
    <glyph glyph-name="Euro" unicode="&#x20ac;" horiz-adv-x="1269" 
d="M1092 1219q-197 0 -338 -71t-215 -196h430v-184h-492q-4 -45 -4 -72t4 -71h492v-185h-430q74 -124 215 -196t338 -72v-205q-291 0 -498 129t-289 344h-252v185h209q-4 49 -4 71t4 72h-209v184h252q82 215 289 344t498 129v-206z" />
    <glyph glyph-name="afii61289" unicode="&#x2113;" horiz-adv-x="1171" 
d="M440 1067v-444q168 162 260 299t93 268q0 217 -164 217q-73 0 -131 -82t-58 -258zM254 1028q0 268 105 390t263 122t236 -98t78 -263t-126 -343t-370 -385l2 -48q2 -133 76 -203t176 -71t190 63t138 150l94 -82q-166 -283 -465 -283q-178 -1 -276 99t-117 252q-2 8 -2 22
q-23 -16 -70 -51t-61 -45l-57 106q172 127 186 140v528z" />
    <glyph glyph-name="trademark" unicode="&#x2122;" horiz-adv-x="1157" 
d="M1106 1434v-619h-115v430l-168 -430h-121l-163 426v-426h-117v619h162l180 -469l182 469h160zM319 1434v-111h-165v-508h-117v508h-184v111h466z" />
    <glyph glyph-name="Omega" unicode="&#x2126;" horiz-adv-x="1755" 
d="M471 150v6q-139 92 -231 246t-93 354q0 288 210 480t526 191q213 0 381 -96t255 -248t87 -339t-94 -343t-234 -245v-6h360v-150h-600v113q160 82 265 236q104 155 104 375t-143 387t-380 167q-236 0 -386 -160t-150 -384t106 -385t261 -236v-113h-600v150h356z" />
    <glyph glyph-name="estimated" unicode="&#x212e;" horiz-adv-x="1757" 
d="M1391 727v399q0 29 -21 48q-212 206 -494 206t-491 -213q-18 -18 -18 -49v-391q0 -12 10 -12h1005q9 0 9 12zM1688 676h-1311q-10 0 -10 -8v-398q0 -25 16 -45q209 -215 509 -215t509 242h117q-111 -131 -280 -207t-361 -76q-336 0 -573 213t-236 514q0 301 237 515
q238 214 573 214q334 0 572 -214t238 -515v-20z" />
    <glyph glyph-name="uni2150" unicode="&#x2150;" horiz-adv-x="2037" 
d="M1284 920h662v-144l-400 -776h-213l385 741h-434v179zM537 492h-193v657q-84 -84 -252 -84v176q141 8 197 46q55 38 55 124h193v-919zM1335 1436l99 -64l-928 -1415l-98 63z" />
    <glyph glyph-name="uni2151" unicode="&#x2151;" horiz-adv-x="1972" 
d="M1522 766q-64 0 -108 -44t-44 -106t44 -107q44 -44 107 -44q62 0 106 43q44 44 44 108t-43 107t-106 43zM1536 940q154 0 249 -129t95 -342t-113 -351t-295 -138t-286 137l131 112q61 -77 153 -77t149 66q56 66 71 171q-72 -78 -198 -78t-218 90q-92 89 -92 221t99 225
q101 93 255 93zM537 492h-193v657q-84 -84 -252 -84v176q141 8 197 46q55 38 55 124h193v-919zM1335 1436l99 -64l-928 -1415l-98 63z" />
    <glyph glyph-name="uni2152" unicode="&#x2152;" horiz-adv-x="2740" 
d="M2270 162q87 0 138 81q52 81 52 219t-52 219t-138 81q-87 0 -138 -82t-51 -219t51 -218t138 -81zM1708 920v-920h-192v657q-84 -84 -252 -84v177q141 8 196 46t56 124h192zM2270 942q170 0 274 -133t104 -347t-105 -348t-273 -134t-273 134t-105 348t104 347t274 133z
M537 492h-193v657q-84 -84 -252 -84v176q141 8 197 46q55 38 55 124h193v-919zM1335 1436l99 -64l-928 -1415l-98 63z" />
    <glyph glyph-name="uni2153" unicode="&#x2153;" horiz-adv-x="1964" 
d="M1872 256q0 -121 -98 -199q-98 -77 -236 -77t-234 74q-95 74 -122 190l180 53q8 -61 54 -100t114 -39t112 34t44 84q0 51 -50 84t-133 33h-104v154h104q76 0 119 30q43 29 43 77t-40 79q-39 31 -101 31t-103 -37t-49 -96l-180 47q27 120 119 192t223 72t225 -75t94 -201
t-131 -195q150 -72 150 -215zM537 492h-193v657q-84 -84 -252 -84v176q141 8 197 46q55 38 55 124h193v-919zM1335 1436l99 -64l-928 -1415l-98 63z" />
    <glyph glyph-name="uni2154" unicode="&#x2154;" horiz-adv-x="2111" 
d="M1678 158q68 0 111 34q44 34 44 84q0 51 -49 84t-133 33h-105v154h105q77 0 119 30q42 29 42 77t-39 79q-40 31 -102 31q-63 0 -103 -37t-48 -96l-181 47q27 120 119 192t223 72t225 -75t95 -201q0 -126 -131 -195q150 -72 149 -215q0 -121 -98 -199q-99 -77 -237 -77
t-233 74t-122 190l180 53q9 -61 55 -100t114 -39zM727 1143q0 -123 -121 -250l-219 -223h358v-178h-643v137l381 397q55 58 55 110t-36 85q-37 33 -93 33q-55 0 -97 -47q-42 -46 -42 -113l-178 32q4 129 97 217q93 89 223 89t222 -83q93 -83 93 -206zM1483 1436l98 -64
l-928 -1415l-98 63z" />
    <glyph glyph-name="uni2155" unicode="&#x2155;" horiz-adv-x="1968" 
d="M1561 610q131 0 223 -87t92 -220t-104 -228t-236 -95t-227 76q-94 76 -127 196l172 55q14 -61 63 -105t114 -44t111 43t48 105q0 62 -45 106t-113 43q-104 0 -164 -86l-154 69l78 482h539v-177h-395l-27 -165q68 32 152 32zM537 492h-193v657q-84 -84 -252 -84v176
q141 8 197 46q55 38 55 124h193v-919zM1335 1436l99 -64l-928 -1415l-98 63z" />
    <glyph glyph-name="uni2156" unicode="&#x2156;" horiz-adv-x="2115" 
d="M1708 610q131 0 223 -87t92 -220t-104 -228q-105 -95 -237 -95t-226 76t-127 196l172 55q13 -61 63 -105t114 -44t112 43q47 43 47 105t-45 106t-113 43q-104 0 -163 -86l-154 69l78 482h538v-177h-395l-27 -165q68 32 152 32zM727 1143q0 -123 -121 -250l-219 -223h358
v-178h-643v137l381 397q55 58 55 110t-36 85q-37 33 -93 33q-55 0 -97 -47q-42 -46 -42 -113l-178 32q4 129 97 217q93 89 223 89t222 -83q93 -83 93 -206zM1483 1436l98 -64l-928 -1415l-98 63z" />
    <glyph glyph-name="uni2157" unicode="&#x2157;" horiz-adv-x="2070" 
d="M1663 610q131 0 223 -87t92 -220t-104 -228t-236 -95t-227 76q-94 76 -127 196l172 55q14 -61 64 -105t114 -44t111 43t47 105t-45 106t-113 43q-104 0 -164 -86l-153 69l78 482h538v-177h-395l-27 -165q68 32 152 32zM782 748q0 -121 -98 -199t-236 -78t-234 74
q-95 74 -122 190l180 53q8 -61 54 -100t114 -39t112 34t44 85t-49 84t-133 33h-105v153h105q76 0 118 30t43 78q0 48 -39 79q-40 31 -102 31t-102 -38q-40 -36 -49 -96l-181 47q27 121 119 193t223 72q132 0 226 -75t94 -202t-131 -194q149 -72 149 -215zM1438 1436l98 -64
l-928 -1415l-98 63z" />
    <glyph glyph-name="uni2158" unicode="&#x2158;" horiz-adv-x="2158" 
d="M1751 610q131 0 223 -87t92 -220t-104 -228t-236 -95t-227 76q-94 76 -127 196l172 55q14 -61 64 -105t114 -44t111 43t47 105t-45 106t-113 43q-104 0 -163 -86l-154 69l78 482h538v-177h-395l-27 -165q68 32 152 32zM711 492h-183v202h-436v140l305 577h201l-297 -555
h227v252h183v-252h139v-162h-139v-202zM1526 1436l98 -64l-928 -1415l-98 63z" />
    <glyph glyph-name="uni2159" unicode="&#x2159;" horiz-adv-x="1931" 
d="M1501 156q63 0 107 43q43 43 43 106t-43 107q-42 44 -106 43q-64 0 -108 -43q-44 -42 -44 -106t44 -107t107 -43zM1530 608q127 0 218 -88t91 -220t-98 -226t-253 -94t-251 129t-96 341t113 352q114 138 295 138t286 -139l-129 -111q-60 78 -154 78t-150 -67t-71 -171
q72 78 199 78zM537 492h-193v657q-84 -84 -252 -84v176q141 8 197 46q55 38 55 124h193v-919zM1335 1436l99 -64l-928 -1415l-98 63z" />
    <glyph glyph-name="uni215A" unicode="&#x215a;" horiz-adv-x="2058" 
d="M1628 156q63 0 107 43q43 43 43 106t-43 107t-107 43q-64 0 -107 -43q-44 -42 -44 -106t44 -107t107 -43zM1657 608q127 0 218 -88t91 -220t-98 -226t-253 -94t-251 129t-96 341t113 352q114 138 295 138t286 -139l-129 -111q-61 78 -155 78t-149 -67q-56 -67 -71 -171
q72 78 199 78zM786 795q0 -133 -104 -229t-236 -95q-132 0 -227 76q-94 76 -127 196l172 56q14 -61 64 -105t114 -45q64 0 111 43q47 44 47 106t-45 105t-113 43q-104 0 -163 -86l-154 70l78 481h538v-176h-395l-27 -166q68 33 152 33q131 0 223 -87t92 -220zM1462 1436
l99 -64l-928 -1415l-98 63z" />
    <glyph glyph-name="oneeighth" unicode="&#x215b;" horiz-adv-x="1984" 
d="M1537 158q71 0 119 35t48 86t-48 86t-118 35t-118 -36q-48 -34 -48 -85t47 -86t118 -35zM1537 764q-62 0 -105 -32t-43 -80t43 -80t105 -32t104 32t42 80t-42 80t-104 32zM1892 274q0 -129 -102 -212q-102 -82 -253 -82t-253 82t-102 212q0 129 135 203q-115 68 -115 188
q0 121 97 199t239 78t238 -79q98 -79 98 -199t-115 -187q133 -74 133 -203zM537 492h-193v657q-84 -84 -252 -84v176q141 8 197 46q55 38 55 124h193v-919zM1335 1436l99 -64l-928 -1415l-98 63z" />
    <glyph glyph-name="threeeighths" unicode="&#x215c;" horiz-adv-x="2086" 
d="M1475 279q1 -51 47 -86t117 -35t119 35t48 86t-48 86t-118 35t-118 -36q-48 -34 -47 -85zM1639 764q-62 0 -105 -32t-43 -80t43 -80t105 -32t105 32q42 32 42 80t-42 80q-43 32 -105 32zM1995 274q-1 -129 -103 -212q-102 -82 -253 -82t-253 82t-102 212q0 129 135 203
q-115 68 -115 188q0 121 98 199q97 78 238 78q140 0 238 -79t98 -199t-114 -187q133 -74 133 -203zM782 748q0 -121 -98 -199t-236 -78t-234 74q-95 74 -122 190l180 53q8 -61 54 -100t114 -39t112 34t44 85t-49 84t-133 33h-105v153h105q76 0 118 30t43 78q0 48 -39 79
q-40 31 -102 31t-102 -38q-40 -36 -49 -96l-181 47q27 121 119 193t223 72q132 0 226 -75t94 -202t-131 -194q149 -72 149 -215zM1438 1436l98 -64l-928 -1415l-98 63z" />
    <glyph glyph-name="fiveeighths" unicode="&#x215d;" horiz-adv-x="2111" 
d="M1664 158q71 0 119 35t48 86t-48 86t-118 35t-118 -36q-48 -34 -48 -85t47 -86t118 -35zM1664 764q-62 0 -105 -32t-43 -80t43 -80t105 -32t104 32t42 80t-42 80t-104 32zM2019 274q0 -129 -102 -212q-102 -82 -253 -82t-253 82t-102 212q0 129 135 203q-115 68 -115 188
q0 121 97 199q96 78 238 78t240 -79t97 -199q0 -120 -115 -187q133 -74 133 -203zM786 795q0 -133 -104 -229t-236 -95q-132 0 -227 76q-94 76 -127 196l172 56q14 -61 64 -105t114 -45q64 0 111 43q47 44 47 106t-45 105t-113 43q-104 0 -163 -86l-154 70l78 481h538v-176
h-395l-27 -166q68 33 152 33q131 0 223 -87t92 -220zM1462 1436l99 -64l-928 -1415l-98 63z" />
    <glyph glyph-name="seveneighths" unicode="&#x215e;" horiz-adv-x="1935" 
d="M1488 158q71 0 119 35t48 86t-48 86t-118 35t-118 -36q-48 -34 -48 -85t47 -86t118 -35zM1488 764q-62 0 -106 -32t-43 -80q0 -48 43 -80q44 -32 106 -32t104 32t42 80t-42 80t-104 32zM1843 274q0 -129 -102 -212q-102 -82 -253 -82t-253 82t-102 212q0 129 135 203
q-115 68 -115 188q0 121 97 199q96 78 238 78t239 -79t97 -199t-114 -187q133 -74 133 -203zM754 1411v-143l-400 -776h-213l385 741h-434v178h662zM1286 1436l98 -64l-927 -1415l-99 63z" />
    <glyph glyph-name="uni215F" unicode="&#x215f;" horiz-adv-x="1089" 
d="M537 492h-193v657q-84 -84 -252 -84v176q141 8 197 46q55 38 55 124h193v-919zM1335 1436l99 -64l-928 -1415l-98 63z" />
    <glyph glyph-name="uni2189" unicode="&#x2189;" horiz-adv-x="2111" 
d="M1678 158q68 0 111 34q44 34 44 84q0 51 -49 84t-133 33h-105v154h105q77 0 119 30q42 29 42 77t-39 79q-40 31 -102 31q-63 0 -103 -37t-48 -96l-181 47q27 120 119 192t223 72t225 -75t95 -201q0 -126 -131 -195q150 -72 149 -215q0 -121 -98 -199q-99 -77 -237 -77
t-233 74t-122 190l180 53q9 -61 55 -100t114 -39zM470 653q87 0 138 81t51 219t-51 219t-138 81t-138 -82t-51 -219t51 -218t138 -81zM848 953q0 -214 -106 -348t-273 -134q-168 0 -272 134q-105 134 -105 348t104 347q104 134 274 134t274 -134t104 -347zM1483 1436l98 -64
l-928 -1415l-98 63z" />
    <glyph glyph-name="partialdiff" unicode="&#x2202;" horiz-adv-x="1304" 
d="M578 123h2q154 0 259 134t132 318q-29 80 -123 158t-227 78t-233 -104q-100 -105 -101 -249q0 -144 81 -240t210 -95zM583 1565q253 0 430 -208t177 -562q0 -221 -71 -405t-217 -300q-146 -117 -343 -117q-155 0 -265 78q-204 144 -204 398q0 225 144 367t356 142
q150 0 256 -76t147 -147h2q2 25 2 92q0 260 -127 424t-310 164t-324 -98l-68 127q162 121 415 121z" />
    <glyph glyph-name="Delta" unicode="&#x2206;" horiz-adv-x="1554" 
d="M274 150h992l-336 751q-15 39 -79 185q-63 147 -75 186h-10q-12 -33 -66 -160t-71 -174zM66 0v119l598 1325h235l590 -1323v-121h-1423z" />
    <glyph glyph-name="product" unicode="&#x220f;" horiz-adv-x="1665" 
d="M1610 1239h-267v-1432h-190v1432h-643v-1432h-191v1432h-266v164h1557v-164z" />
    <glyph glyph-name="summation" unicode="&#x2211;" horiz-adv-x="1318" 
d="M1268 -193h-1221v113l625 680l-594 676v127h1155v-162h-877v-6l543 -614l-586 -639v-7h955v-168z" />
    <glyph glyph-name="minus" unicode="&#x2212;" horiz-adv-x="1167" 
d="M123 604v184h921v-184h-921z" />
    <glyph glyph-name="radical" unicode="&#x221a;" horiz-adv-x="1341" 
d="M1360 1665l-531 -1968h-167l-375 921l-174 -65l-39 104l327 131l301 -768q31 -92 43 -135h3q4 23 16 71t16 69l434 1640h146z" />
    <glyph glyph-name="infinity" unicode="&#x221e;" horiz-adv-x="1736" 
d="M1282 819h-2q-52 0 -108 -31q-56 -30 -86 -56t-86 -86t-62 -66q121 -136 195 -190q75 -54 163 -54t148 72q59 72 59 174t-62 170q-63 67 -159 67zM465 336h4q60 0 101 24t61 36q20 13 50 42t43 42t44 46t39 41q-148 192 -236 227q-63 25 -118 25q-97 0 -159 -73t-62 -174
q0 -100 66 -168q65 -68 167 -68zM1622 582v-2q0 -158 -102 -257t-242 -100q-100 1 -194 63t-214 201q-76 -86 -125 -133t-130 -89t-166 -42q-135 1 -235 101t-101 250q0 150 101 252q100 102 234 102t229 -69t204 -195q53 59 69 77q16 19 66 67t85 65q107 53 193 55
q144 -2 236 -97t92 -249z" />
    <glyph glyph-name="integral" unicode="&#x222b;" horiz-adv-x="808" 
d="M158 -193q186 0 186 386q0 171 -16 511t-16 504t28 266q29 102 96 164q82 80 219 80q78 1 131 -30l-28 -123q-36 23 -102 23t-105 -48q-76 -82 -76 -354q1 -156 17 -492t16 -506q0 -268 -94 -401q-76 -117 -236 -117q-96 0 -160 37l29 129q63 -29 111 -29z" />
    <glyph glyph-name="approxequal" unicode="&#x2248;" horiz-adv-x="1312" 
d="M417 408q-77 0 -129 -42t-110 -122l-76 71q56 95 142 151t183 56t169 -41q44 -22 71 -36q27 -13 58 -30t59 -31q56 -28 124 -28t118 38t107 122l73 -72q-125 -205 -303 -204q-87 0 -171 42q-28 13 -103 52q-135 74 -212 74zM420 795q-78 0 -131 -42t-111 -120l-76 69
q56 94 142 150t185 57q99 0 183 -49q62 -32 72 -38q10 -7 34 -19t49 -27t72 -24t66 -9q67 0 121 39t107 123l73 -74q-123 -205 -301 -204q-86 0 -173 41q-32 14 -103 53q-131 74 -209 74z" />
    <glyph glyph-name="notequal" unicode="&#x2260;" horiz-adv-x="1167" 
d="M1044 809h-305l-104 -225h409v-185h-495l-88 -186h-207l88 186h-219v185h305l104 225h-409v184h495l89 187h206l-88 -187h219v-184z" />
    <glyph glyph-name="lessequal" unicode="&#x2264;" horiz-adv-x="1167" 
d="M123 184v152h921v-152h-921zM1044 1243v-164l-653 -260l653 -260v-164l-921 373v102z" />
    <glyph glyph-name="greaterequal" unicode="&#x2265;" horiz-adv-x="1167" 
d="M123 184v152h921v-152h-921zM123 1243l921 -373v-102l-921 -373v164l653 260l-653 260v164z" />
    <glyph glyph-name="lozenge" unicode="&#x25ca;" horiz-adv-x="1343" 
d="M1047 696l-334 574q-29 55 -43 92h-4q-14 -43 -45 -92l-328 -565l336 -578q33 -61 41 -92h6q14 43 41 92zM1221 700l-476 -806h-151l-473 806l475 807h152z" />
    <glyph glyph-name="i.loclTRK" horiz-adv-x="524" 
d="M160 1024h205v-1024h-205v1024zM263 1126q-54 0 -94 39t-40 94.5t40 94.5t94 39t94 -39t40 -94.5t-40 -94.5t-94 -39z" />
    <glyph glyph-name="a.ss01" horiz-adv-x="1216" 
d="M575.5 174q131.5 0 211 95.5t79.5 242.5t-79.5 242.5t-211 95.5t-211 -95.5t-79.5 -242.5t79.5 -242.5t211 -95.5zM856 1024h205v-1024h-205v160q-94 -180 -304 -180t-342 148t-130 382t133 384t337 150t306 -167v147z" />
    <glyph glyph-name="three.ss01" horiz-adv-x="1198" 
d="M1096 451q0 -209 -154 -347t-346 -137t-330 105t-186 288l211 64q23 -115 103 -178q80 -64 194 -64t198 73t84 190t-68 185t-169 66q-59 0 -97 -18t-79 -57l-131 127l409 430h-592v215h893v-179l-340 -348q184 -14 292 -130t108 -285z" />
    <glyph glyph-name="zero.tf" horiz-adv-x="1269" 
d="M635 182q154 0 243 137t89 377t-89 377t-243 137t-243 -137t-89 -377t89 -377t243 -137zM635 -33q-250 0 -404 202q-153 201 -153 527t153 528q154 202 404 202q249 0 403 -202t154 -528t-154 -528t-403 -201z" />
    <glyph glyph-name="one.tf" horiz-adv-x="1269" 
d="M795 215h350v-215h-936v215h360v842q-111 -135 -344 -135v192q158 0 251 80t93 199h226v-1178z" />
    <glyph glyph-name="two.tf" horiz-adv-x="1269" 
d="M1106 215v-215h-936v178l588 621q94 98 94 194q0 97 -66 157t-160 60t-165 -63q-70 -63 -82 -158l-215 37q25 170 154 285q130 115 312 115t315 -120q132 -120 132 -304t-178 -367l-410 -420h617z" />
    <glyph glyph-name="three.tf" horiz-adv-x="1269" 
d="M615 -33q-199 -1 -343 105t-192 288l211 64q23 -114 109 -178t202 -64q117 0 199 62t82 152q0 92 -83 154t-206 62h-182v193h182q110 0 184 60q74 61 74 147t-75 142t-182 56t-186 -63t-104 -178l-211 63q52 184 188 288t326 105t329 -117q138 -118 138 -288
q0 -211 -207 -307q113 -47 176 -131t64 -195q0 -176 -147 -298t-346 -122z" />
    <glyph glyph-name="four.tf" horiz-adv-x="1269" 
d="M1182 522v-200h-236v-322h-213v322h-665v176l456 895h234l-449 -871h424v428h213v-428h236z" />
    <glyph glyph-name="five.tf" horiz-adv-x="1269" 
d="M668 922q174 0 314 -130t140 -335t-154 -347t-346 -142t-329 104t-187 288l211 64q23 -115 104 -178q81 -64 193 -64t197 78q86 78 86 197t-78 189q-79 70 -217 71q-138 0 -254 -105l-192 97l112 684h776v-215h-604l-53 -332q108 76 281 76z" />
    <glyph glyph-name="six.tf" horiz-adv-x="1269" 
d="M649 182q115 0 196 81t81 196t-81 195t-196 81q-115 0 -195 -81q-80 -82 -81 -196q1 -114 81 -195t195 -81zM680 934q199 0 335 -141t136 -342t-143 -342t-344 -142q-260 1 -402 189t-143 518q0 330 170 541q170 210 434 210q111 0 219 -48t172 -128l-162 -137
q-38 43 -102 71t-127 27q-156 0 -261 -123t-124 -319q52 74 146 120t196 46z" />
    <glyph glyph-name="seven.tf" horiz-adv-x="1269" 
d="M154 1393h964v-189l-618 -1204h-254l610 1178h-702v215z" />
    <glyph glyph-name="eight.tf" horiz-adv-x="1269" 
d="M635 182q125 0 207 62t82 154t-83 154t-206 62t-206 -62t-83 -154t82 -154t207 -62zM635 1210q-109 0 -183 -57t-73 -144q0 -87 74 -145q73 -58 183 -57q110 0 184 57q74 56 73 144t-75 145t-183 57zM1149 387q1 -176 -147 -298t-367 -122t-367 122q-147 122 -147 298
q0 105 59 193t164 141q-190 100 -190 299q0 170 138 288t343 118t343 -118t138 -288q0 -199 -190 -299q104 -53 164 -140t59 -194z" />
    <glyph glyph-name="nine.tf" horiz-adv-x="1269" 
d="M600 657q115 0 196 81t81 196q0 116 -81 196t-196 80t-196 -81q-80 -81 -80 -195t80 -196q80 -81 196 -81zM586 1425q260 0 402 -188q142 -189 142 -519t-169 -541q-170 -210 -435 -210q-110 0 -218 48t-173 128l162 138q37 -43 101 -71t128 -28q156 0 262 123t125 322
q-51 -74 -145 -121t-199 -47q-199 0 -335 140t-136 342t144 343t344 141z" />
    <glyph glyph-name="zero.dnom" horiz-adv-x="940" 
d="M470 162q87 0 138 81t51 219t-51 219t-138 81t-138 -82t-51 -219t51 -218t138 -81zM469 -20q-168 0 -272 134q-105 134 -105 348t104 347t274 133q169 0 273 -133q105 -133 105 -347t-106 -348t-273 -134z" />
    <glyph glyph-name="one.dnom" horiz-adv-x="628" 
d="M344 920h193v-920h-193v657q-84 -84 -252 -84v177q141 8 197 46q55 38 55 124z" />
    <glyph glyph-name="two.dnom" horiz-adv-x="837" 
d="M745 178v-178h-643v137l381 398q55 59 55 110t-36 84q-37 33 -93 33q-55 0 -97 -46t-42 -114l-178 33q4 129 97 217t223 88t222 -83q93 -83 93 -206t-121 -250l-219 -223h358z" />
    <glyph glyph-name="three.dnom" horiz-adv-x="874" 
d="M440 158q68 0 112 34t44 84q0 51 -49 84t-133 33h-105v154h105q76 0 118 30q42 29 43 77q0 48 -39 79q-40 31 -102 31t-102 -37t-49 -96l-181 47q27 120 119 192t223 72q132 0 226 -75t94 -201t-131 -195q150 -72 149 -215q0 -121 -98 -199q-98 -77 -236 -77t-234 74
q-95 74 -122 190l180 53q8 -61 54 -100t114 -39z" />
    <glyph glyph-name="four.dnom" horiz-adv-x="942" 
d="M850 365v-162h-139v-203h-183v203h-436v139l305 578h201l-297 -555h227v251h183v-251h139z" />
    <glyph glyph-name="five.dnom" horiz-adv-x="878" 
d="M471 610q131 0 223 -87t92 -220t-104 -228t-236 -95t-227 76q-94 76 -127 196l172 55q14 -61 64 -105t114 -44t111 43t47 105t-45 106t-113 43q-104 0 -163 -86l-154 69l78 482h538v-177h-395l-27 -165q68 32 152 32z" />
    <glyph glyph-name="six.dnom" horiz-adv-x="882" 
d="M453 156q63 0 106 43t43 106t-43 107t-106 43q-63 0 -107 -43q-44 -42 -45 -106q1 -64 45 -107t107 -43zM481 608q127 0 218 -88t91 -220t-98 -226t-252 -94t-252 129q-96 129 -96 341t114 352q114 138 295 138t285 -139l-129 -111q-61 78 -154 78t-149 -67t-71 -171
q71 78 198 78z" />
    <glyph glyph-name="seven.dnom" horiz-adv-x="845" 
d="M92 920h662v-144l-400 -776h-213l385 741h-434v179z" />
    <glyph glyph-name="eight.dnom" horiz-adv-x="894" 
d="M448 158q70 0 118 35t48 86t-48 86t-118 35t-117 -36q-48 -34 -48 -85t47 -86t118 -35zM448 764q-62 0 -106 -32t-43 -80q0 -48 43 -80q44 -32 106 -32t104 32t42 80t-42 80t-104 32zM803 274q-1 -129 -103 -212q-102 -82 -252 -82t-253 82t-103 212q0 129 135 203
q-115 68 -115 188q0 121 98 199q96 78 238 78t239 -79t97 -199t-114 -187q133 -74 133 -203z" />
    <glyph glyph-name="nine.dnom" horiz-adv-x="882" 
d="M431 465q62 0 107 43q44 44 44 108t-43 107t-107 43t-107 -44q-44 -44 -44 -106t44 -107q44 -44 106 -44zM446 940q154 0 249 -129t95 -342t-112 -351q-113 -138 -295 -138t-287 137l131 112q61 -77 153 -77t149 66q56 66 71 171q-72 -78 -198 -78t-218 90
q-92 89 -92 221t99 225q101 93 255 93z" />
    <glyph glyph-name="zero.numr" horiz-adv-x="940" 
d="M470 653q87 0 138 81t51 219t-51 219t-138 81t-138 -82t-51 -219t51 -218t138 -81zM469 471q-168 0 -272 134q-105 134 -105 348t104 347q104 134 274 134q169 0 273 -134q105 -134 105 -347q0 -214 -106 -348t-273 -134z" />
    <glyph glyph-name="one.numr" horiz-adv-x="628" 
d="M344 1411h193v-919h-193v657q-84 -84 -252 -84v176q141 8 197 46q55 38 55 124z" />
    <glyph glyph-name="two.numr" horiz-adv-x="837" 
d="M745 670v-178h-643v137l381 397q55 58 55 110t-36 85q-37 33 -93 33q-55 0 -97 -47q-42 -46 -42 -113l-178 32q4 129 97 217q93 89 223 89t222 -83q93 -83 93 -206t-121 -250l-219 -223h358z" />
    <glyph glyph-name="three.numr" horiz-adv-x="874" 
d="M448 471q-138 0 -234 74q-95 74 -122 190l180 53q8 -61 54 -100t114 -39t112 34t44 85t-49 84t-133 33h-105v153h105q76 0 118 30t43 78q0 48 -39 79q-40 31 -102 31t-102 -38q-40 -36 -49 -96l-181 47q27 121 119 193t223 72q132 0 226 -75t94 -201t-131 -195
q150 -72 149 -215q0 -121 -98 -199t-236 -78z" />
    <glyph glyph-name="four.numr" horiz-adv-x="942" 
d="M850 856v-162h-139v-202h-183v202h-436v140l305 577h201l-297 -555h227v252h183v-252h139z" />
    <glyph glyph-name="five.numr" horiz-adv-x="878" 
d="M471 1102q131 0 223 -87t92 -220t-104 -229t-236 -95q-132 0 -227 76q-94 76 -127 196l172 56q14 -61 64 -105t114 -45q64 0 111 43q47 44 47 106t-45 105t-113 43q-104 0 -163 -86l-154 70l78 481h538v-176h-395l-27 -166q68 33 152 33z" />
    <glyph glyph-name="six.numr" horiz-adv-x="882" 
d="M453 647q63 0 106 43q43 42 43 106t-43 107t-106 43t-107 -43t-45 -106q0 -63 44 -107q45 -43 108 -43zM481 1100q127 0 218 -88t91 -220t-98 -226t-252 -95q-154 0 -252 129q-96 129 -96 342t114 351q114 139 295 139t285 -140l-129 -110q-61 78 -154 78t-149 -67
t-71 -171q71 78 198 78z" />
    <glyph glyph-name="seven.numr" horiz-adv-x="845" 
d="M92 1411h662v-143l-400 -776h-213l385 741h-434v178z" />
    <glyph glyph-name="eight.numr" horiz-adv-x="894" 
d="M448 649q70 0 118 35t48 86t-48 86t-118 35t-117 -35q-48 -35 -48 -86t47 -86t118 -35zM594 1144q0 48 -42 80t-104 31q-62 0 -106 -31q-43 -32 -43 -80t43 -80q44 -32 106 -32t104 32t42 80zM803 766q-1 -129 -103 -212t-252 -83t-253 83t-103 212t135 203
q-115 67 -115 187t98 199q96 79 238 79t239 -79t97 -199t-114 -187q133 -74 133 -203z" />
    <glyph glyph-name="nine.numr" horiz-adv-x="882" 
d="M281 1107q0 -63 44 -107t106 -44t107 43q44 43 44 108t-43 107t-107 43q-64 0 -107 -44q-44 -44 -44 -106zM92 1114q0 130 100 224t254 94t249 -129t95 -342t-112 -351q-113 -138 -295 -139q-182 0 -287 137l131 113q61 -78 153 -78t149 67q56 67 71 171
q-72 -78 -198 -78t-218 90t-92 221z" />
    </font>
</defs>
</svg>
