<svg version="1.1" xmlns="http://www.w3.org/2000/svg" xmlns:xlink="http://www.w3.org/1999/xlink">
<defs>
<symbol id="ph-logo-small" viewBox="0 0 56.1 56.1"><path fill="#CC3466" d="M26.1 26.2c.6-.6.6-1.3.2-2.1-.6-1-7.2-18.6-7.2-18.6-1.8-3.6-5.2-5.5-9-5.5C7.3 0 4.8 1.1 3 3 1.2 4.8.1 7.3 0 10.1c0 3.9 1.9 7.2 5.5 9 0 0 17.5 6.6 18.6 7.2.8.5 1.5.4 2-.1z"/><path fill="#49C2C6" d="M29.9 29.9c-.6.6-.6 1.3-.2 2.1.6 1 7.2 18.6 7.2 18.6 1.8 3.6 5.2 5.5 9 5.5 2.8 0 5.3-1.1 7.1-3 1.8-1.8 2.9-4.3 3-7.1 0-3.9-1.9-7.2-5.5-9 0 0-17.5-6.6-18.6-7.2-.8-.4-1.5-.4-2 .1z"/><path fill="#F7CE21" d="M29.9 26.2c.6.6 1.3.6 2.1.2 1-.6 18.6-7.2 18.6-7.2 3.6-1.8 5.5-5.2 5.5-9 0-2.8-1.1-5.3-3-7.1-1.8-1.8-4.3-2.9-7.1-3-3.9 0-7.2 1.9-9 5.5 0 0-6.6 17.5-7.2 18.6-.5.8-.4 1.5.1 2z"/><path fill="#6FBE44" d="M26.2 30c-.6-.6-1.3-.6-2.1-.2-1 .6-18.6 7.2-18.6 7.2C1.9 38.8 0 42.2 0 46c0 2.8 1.1 5.3 3 7.1 1.8 1.8 4.3 2.9 7.1 3 3.9 0 7.2-1.9 9-5.5 0 0 6.6-17.5 7.2-18.6.4-.8.4-1.5-.1-2z"/></symbol>
</defs>
</svg>